<svg viewBox="0 0 1512 982" fill="none" xmlns="http://www.w3.org/2000/svg" xmlns:xlink="http://www.w3.org/1999/xlink">
    <path id="projects-title" d="M247.88 199.8H282.28L290.192 207.712V227.062L282.194 235.06H254.416V260H247.88V199.8ZM279.442 229.384L283.742 225.17V209.69L279.442 205.476H254.416V229.384H279.442ZM300.108 217.172H306.3V224.826L313.954 217.172H325.048V222.848H315.588L306.472 231.964V260H300.108V217.172ZM330.154 252.088V225.084L338.066 217.172H360.082L367.994 225.084V252.088L360.082 260H338.066L330.154 252.088ZM357.33 254.324L361.63 250.11V227.062L357.33 222.848H340.818L336.518 227.062V250.11L340.818 254.324H357.33ZM380.501 207.368V203.584L383.081 201.004H386.865L389.445 203.584V207.368L386.865 209.948H383.081L380.501 207.368ZM368.891 273.072H377.491L381.791 268.858V217.172H388.155V270.922L380.329 278.748H368.891V273.072ZM401.037 252.088V225.084L408.949 217.172H430.535L438.533 225.084V240.478H407.401V250.11L411.701 254.324H427.783L432.083 250.11V246.842H438.447V252.088L430.535 260H408.949L401.037 252.088ZM432.169 234.974V227.062L427.869 222.848H411.701L407.401 227.062V234.974H432.169ZM449.244 252.088V225.084L457.156 217.172H477.796L485.708 225.084V230.33H479.344V227.062L475.044 222.848H459.908L455.608 227.062V250.11L459.908 254.324H475.044L479.344 250.11V246.842H485.708V252.088L477.796 260H457.156L449.244 252.088ZM499.914 252.088V222.762H492.174V217.172H500.086V203.24H506.278V217.172H519.694V222.762H506.278V250.11L510.578 254.41H519.694V260H507.826L499.914 252.088ZM526.984 252.948V247.616H533.348V251.142L536.788 254.496H552.612L556.052 251.142V244.52L552.612 241.08H534.122L527.328 234.286V224.224L534.38 217.172H554.504L561.556 224.224V229.556H555.192V226.03L551.752 222.676H537.132L533.692 226.03V232.308L537.132 235.748H555.364L562.416 242.8V252.948L555.364 260H534.036L526.984 252.948Z" fill="black"/>
</svg>