<svg viewBox="0 0 1512 1302" fill="none" xmlns="http://www.w3.org/2000/svg">
<rect width="1512" height="1302" fill="white"/>
<path d="M253.336 195V141H258.736V168.54H272.596V141H277.996V195H272.596V173.94H258.736V195H253.336ZM300.68 195.864C298.232 195.864 296.084 195.336 294.236 194.28C292.388 193.224 290.936 191.748 289.88 189.852C288.824 187.932 288.296 185.7 288.296 183.156V167.712C288.296 165.216 288.824 163.02 289.88 161.124C290.936 159.204 292.388 157.716 294.236 156.66C296.084 155.58 298.232 155.04 300.68 155.04C304.352 155.04 307.316 156.204 309.572 158.532C311.828 160.86 312.956 163.92 312.956 167.712V176.244H292.472V171.204H307.736V167.532C307.736 165.348 307.1 163.596 305.828 162.276C304.58 160.932 302.864 160.26 300.68 160.26C298.496 160.26 296.756 160.932 295.46 162.276C294.164 163.596 293.516 165.348 293.516 167.532V183.336C293.516 185.52 294.164 187.284 295.46 188.628C296.756 189.972 298.496 190.644 300.68 190.644C302.864 190.644 304.58 189.972 305.828 188.628C307.1 187.284 307.736 185.52 307.736 183.336V182.436H312.956V183.156C312.956 186.948 311.828 190.02 309.572 192.372C307.316 194.7 304.352 195.864 300.68 195.864ZM321.792 195V155.94H327.012V161.556L326.112 160.476C327.024 158.868 328.236 157.632 329.748 156.768C331.26 155.904 333.012 155.472 335.004 155.472H336.696V160.692H333.924C331.836 160.692 330.156 161.34 328.884 162.636C327.636 163.932 327.012 165.672 327.012 167.856V195H321.792ZM353.344 195.864C350.896 195.864 348.748 195.336 346.9 194.28C345.052 193.224 343.6 191.748 342.544 189.852C341.488 187.932 340.96 185.7 340.96 183.156V167.712C340.96 165.216 341.488 163.02 342.544 161.124C343.6 159.204 345.052 157.716 346.9 156.66C348.748 155.58 350.896 155.04 353.344 155.04C357.016 155.04 359.98 156.204 362.236 158.532C364.492 160.86 365.62 163.92 365.62 167.712V176.244H345.136V171.204H360.4V167.532C360.4 165.348 359.764 163.596 358.492 162.276C357.244 160.932 355.528 160.26 353.344 160.26C351.16 160.26 349.42 160.932 348.124 162.276C346.828 163.596 346.18 165.348 346.18 167.532V183.336C346.18 185.52 346.828 187.284 348.124 188.628C349.42 189.972 351.16 190.644 353.344 190.644C355.528 190.644 357.244 189.972 358.492 188.628C359.764 187.284 360.4 185.52 360.4 183.336V182.436H365.62V183.156C365.62 186.948 364.492 190.02 362.236 192.372C359.98 194.7 357.016 195.864 353.344 195.864ZM375.5 156.84L377.264 150.828H374.996V141H380.396V150.828L378.632 156.84H375.5ZM401.7 195.864C397.98 195.864 394.992 194.796 392.736 192.66C390.504 190.5 389.388 187.656 389.388 184.128V182.868H394.608V184.344C394.608 186.24 395.244 187.764 396.516 188.916C397.812 190.068 399.516 190.644 401.628 190.644C403.668 190.644 405.288 190.068 406.488 188.916C407.688 187.764 408.288 186.096 408.288 183.912C408.288 182.496 408.012 181.416 407.46 180.672C406.932 179.904 406.164 179.328 405.156 178.944C404.148 178.56 402.924 178.224 401.484 177.936C399.108 177.432 397.008 176.88 395.184 176.28C393.36 175.656 391.932 174.672 390.9 173.328C389.892 171.984 389.388 169.98 389.388 167.316C389.388 163.332 390.48 160.296 392.664 158.208C394.872 156.096 397.764 155.04 401.34 155.04C405.06 155.04 408.012 156.12 410.196 158.28C412.404 160.416 413.508 163.236 413.508 166.74V167.964H408.288V166.56C408.288 164.64 407.664 163.116 406.416 161.988C405.192 160.836 403.524 160.26 401.412 160.26C399.348 160.26 397.692 160.848 396.444 162.024C395.22 163.176 394.608 164.844 394.608 167.028C394.608 168.444 394.872 169.536 395.4 170.304C395.952 171.048 396.744 171.6 397.776 171.96C398.808 172.32 400.044 172.656 401.484 172.968C403.836 173.448 405.912 174 407.712 174.624C409.512 175.248 410.928 176.244 411.96 177.612C412.992 178.98 413.508 181.008 413.508 183.696C413.508 187.608 412.428 190.62 410.268 192.732C408.132 194.82 405.276 195.864 401.7 195.864ZM437.245 195V141H442.465V161.052L441.601 159.936C442.489 158.376 443.677 157.164 445.165 156.3C446.677 155.436 448.453 155.004 450.493 155.004C452.557 155.004 454.405 155.472 456.037 156.408C457.693 157.32 458.989 158.664 459.925 160.44C460.885 162.216 461.365 164.388 461.365 166.956V195H456.145V167.496C456.145 165.288 455.521 163.524 454.273 162.204C453.049 160.884 451.417 160.224 449.377 160.224C447.289 160.224 445.609 160.884 444.337 162.204C443.089 163.524 442.465 165.288 442.465 167.496V195H437.245ZM482.367 195.864C479.919 195.864 477.771 195.336 475.923 194.28C474.075 193.224 472.623 191.748 471.567 189.852C470.511 187.932 469.983 185.7 469.983 183.156V167.712C469.983 165.216 470.511 163.02 471.567 161.124C472.623 159.204 474.075 157.716 475.923 156.66C477.771 155.58 479.919 155.04 482.367 155.04C486.039 155.04 489.003 156.204 491.259 158.532C493.515 160.86 494.643 163.92 494.643 167.712V183.156C494.643 186.948 493.515 190.02 491.259 192.372C489.003 194.7 486.039 195.864 482.367 195.864ZM482.367 190.644C484.551 190.644 486.267 189.972 487.515 188.628C488.787 187.284 489.423 185.52 489.423 183.336V167.532C489.423 165.348 488.787 163.596 487.515 162.276C486.267 160.932 484.551 160.26 482.367 160.26C480.183 160.26 478.443 160.932 477.147 162.276C475.851 163.596 475.203 165.348 475.203 167.532V183.336C475.203 185.52 475.851 187.284 477.147 188.628C478.443 189.972 480.183 190.644 482.367 190.644ZM506.364 195L500.136 155.94H505.572L509.928 189.276L509.136 189.204L515.544 155.94H520.476L526.884 189.204L526.128 189.276L530.412 155.94H535.884L529.656 195H523.752L517.56 164.904H518.568L512.304 195H506.364ZM565.017 195H559.617V141H565.017V195ZM603.094 195.864C600.646 195.864 598.498 195.336 596.65 194.28C594.802 193.224 593.35 191.748 592.294 189.852C591.238 187.932 590.71 185.7 590.71 183.156V167.712C590.71 165.216 591.238 163.02 592.294 161.124C593.35 159.204 594.802 157.716 596.65 156.66C598.498 155.58 600.646 155.04 603.094 155.04C606.766 155.04 609.73 156.204 611.986 158.532C614.242 160.86 615.37 163.92 615.37 167.712V168.432H610.15V167.532C610.15 165.348 609.514 163.596 608.242 162.276C606.994 160.932 605.278 160.26 603.094 160.26C600.91 160.26 599.17 160.932 597.874 162.276C596.578 163.596 595.93 165.348 595.93 167.532V183.336C595.93 185.52 596.578 187.284 597.874 188.628C599.17 189.972 600.91 190.644 603.094 190.644C605.278 190.644 606.994 189.972 608.242 188.628C609.514 187.284 610.15 185.52 610.15 183.336V182.436H615.37V183.156C615.37 186.948 614.242 190.02 611.986 192.372C609.73 194.7 606.766 195.864 603.094 195.864ZM632.079 195.864C628.479 195.864 625.695 194.868 623.727 192.876C621.759 190.884 620.775 188.364 620.775 185.316C620.775 183.42 621.123 181.848 621.819 180.6C622.515 179.328 623.403 178.296 624.483 177.504C625.587 176.712 626.751 176.076 627.975 175.596C629.439 174.996 630.927 174.528 632.439 174.192C633.975 173.832 635.391 173.46 636.687 173.076C637.983 172.668 639.027 172.116 639.819 171.42C640.611 170.724 641.007 169.74 641.007 168.468V167.532C641.007 165.348 640.347 163.596 639.027 162.276C637.731 160.932 636.003 160.26 633.843 160.26C631.659 160.26 629.931 160.932 628.659 162.276C627.411 163.596 626.787 165.348 626.787 167.532V168.612H621.567V167.712C621.567 163.92 622.695 160.86 624.951 158.532C627.207 156.204 630.171 155.04 633.843 155.04C636.267 155.04 638.403 155.58 640.251 156.66C642.123 157.716 643.587 159.192 644.643 161.088C645.699 162.984 646.227 165.192 646.227 167.712V195H641.007V189.6L641.871 190.752C640.959 192.384 639.675 193.644 638.019 194.532C636.363 195.42 634.383 195.864 632.079 195.864ZM633.159 190.896C635.607 190.896 637.527 190.212 638.919 188.844C640.311 187.452 641.007 185.472 641.007 182.904V175.992C639.543 176.904 637.911 177.528 636.111 177.864C634.311 178.176 632.595 178.608 630.963 179.16C629.523 179.64 628.335 180.324 627.399 181.212C626.463 182.076 625.995 183.312 625.995 184.92C625.995 186.672 626.619 188.112 627.867 189.24C629.115 190.344 630.879 190.896 633.159 190.896ZM655.846 195V155.94H661.066V161.16L660.166 160.116C661.078 158.484 662.29 157.236 663.802 156.372C665.314 155.484 667.078 155.04 669.094 155.04C672.358 155.04 674.986 156.168 676.978 158.424C678.97 160.68 679.966 163.716 679.966 167.532V195H674.746V167.532C674.746 165.348 674.122 163.596 672.874 162.276C671.65 160.932 670.018 160.26 667.978 160.26C665.89 160.26 664.21 160.932 662.938 162.276C661.69 163.596 661.066 165.348 661.066 167.532V195H655.846ZM718.311 195.864C716.247 195.864 714.471 195.444 712.983 194.604C711.519 193.764 710.355 192.588 709.491 191.076L710.355 189.924V195H705.135V141H710.355V161.016L709.491 159.828C710.355 158.34 711.519 157.176 712.983 156.336C714.471 155.472 716.247 155.04 718.311 155.04C720.447 155.04 722.367 155.52 724.071 156.48C725.799 157.44 727.167 158.856 728.175 160.728C729.183 162.576 729.687 164.844 729.687 167.532V183.336C729.687 186.048 729.183 188.34 728.175 190.212C727.167 192.084 725.799 193.5 724.071 194.46C722.367 195.396 720.447 195.864 718.311 195.864ZM717.339 190.644C719.571 190.644 721.311 189.972 722.559 188.628C723.831 187.284 724.467 185.52 724.467 183.336V167.532C724.467 165.348 723.831 163.596 722.559 162.276C721.311 160.932 719.583 160.26 717.375 160.26C715.143 160.26 713.415 160.932 712.191 162.276C710.967 163.596 710.355 165.348 710.355 167.532V183.372C710.355 185.556 710.967 187.32 712.191 188.664C713.415 189.984 715.131 190.644 717.339 190.644ZM750.188 195.864C747.74 195.864 745.592 195.336 743.744 194.28C741.896 193.224 740.444 191.748 739.388 189.852C738.332 187.932 737.804 185.7 737.804 183.156V167.712C737.804 165.216 738.332 163.02 739.388 161.124C740.444 159.204 741.896 157.716 743.744 156.66C745.592 155.58 747.74 155.04 750.188 155.04C753.86 155.04 756.824 156.204 759.08 158.532C761.336 160.86 762.464 163.92 762.464 167.712V176.244H741.98V171.204H757.244V167.532C757.244 165.348 756.608 163.596 755.336 162.276C754.088 160.932 752.372 160.26 750.188 160.26C748.004 160.26 746.264 160.932 744.968 162.276C743.672 163.596 743.024 165.348 743.024 167.532V183.336C743.024 185.52 743.672 187.284 744.968 188.628C746.264 189.972 748.004 190.644 750.188 190.644C752.372 190.644 754.088 189.972 755.336 188.628C756.608 187.284 757.244 185.52 757.244 183.336V182.436H762.464V183.156C762.464 186.948 761.336 190.02 759.08 192.372C756.824 194.7 753.86 195.864 750.188 195.864ZM797.93 195.864C795.482 195.864 793.334 195.336 791.486 194.28C789.638 193.224 788.186 191.748 787.13 189.852C786.074 187.932 785.546 185.7 785.546 183.156V167.712C785.546 165.216 786.074 163.02 787.13 161.124C788.186 159.204 789.638 157.716 791.486 156.66C793.334 155.58 795.482 155.04 797.93 155.04C801.602 155.04 804.566 156.204 806.822 158.532C809.078 160.86 810.206 163.92 810.206 167.712V183.156C810.206 186.948 809.078 190.02 806.822 192.372C804.566 194.7 801.602 195.864 797.93 195.864ZM797.93 190.644C800.114 190.644 801.83 189.972 803.078 188.628C804.35 187.284 804.986 185.52 804.986 183.336V167.532C804.986 165.348 804.35 163.596 803.078 162.276C801.83 160.932 800.114 160.26 797.93 160.26C795.746 160.26 794.006 160.932 792.71 162.276C791.414 163.596 790.766 165.348 790.766 167.532V183.336C790.766 185.52 791.414 187.284 792.71 188.628C794.006 189.972 795.746 190.644 797.93 190.644ZM821.843 195V160.872H814.607V155.94H821.843V153.348C821.843 150.78 822.347 148.512 823.355 146.544C824.387 144.576 825.827 143.04 827.675 141.936C829.547 140.832 831.731 140.28 834.227 140.28H836.963V145.5H834.227C832.043 145.5 830.303 146.22 829.007 147.66C827.711 149.1 827.063 150.996 827.063 153.348V155.94H836.963V160.872H827.063V195H821.843ZM868.294 195.864C864.574 195.864 861.586 194.796 859.33 192.66C857.098 190.5 855.982 187.656 855.982 184.128V182.868H861.202V184.344C861.202 186.24 861.838 187.764 863.11 188.916C864.406 190.068 866.11 190.644 868.222 190.644C870.262 190.644 871.882 190.068 873.082 188.916C874.282 187.764 874.882 186.096 874.882 183.912C874.882 182.496 874.606 181.416 874.054 180.672C873.526 179.904 872.758 179.328 871.75 178.944C870.742 178.56 869.518 178.224 868.078 177.936C865.702 177.432 863.602 176.88 861.778 176.28C859.954 175.656 858.526 174.672 857.494 173.328C856.486 171.984 855.982 169.98 855.982 167.316C855.982 163.332 857.074 160.296 859.258 158.208C861.466 156.096 864.358 155.04 867.934 155.04C871.654 155.04 874.606 156.12 876.79 158.28C878.998 160.416 880.102 163.236 880.102 166.74V167.964H874.882V166.56C874.882 164.64 874.258 163.116 873.01 161.988C871.786 160.836 870.118 160.26 868.006 160.26C865.942 160.26 864.286 160.848 863.038 162.024C861.814 163.176 861.202 164.844 861.202 167.028C861.202 168.444 861.466 169.536 861.994 170.304C862.546 171.048 863.338 171.6 864.37 171.96C865.402 172.32 866.638 172.656 868.078 172.968C870.43 173.448 872.506 174 874.306 174.624C876.106 175.248 877.522 176.244 878.554 177.612C879.586 178.98 880.102 181.008 880.102 183.696C880.102 187.608 879.022 190.62 876.862 192.732C874.726 194.82 871.87 195.864 868.294 195.864ZM899.672 195.864C897.224 195.864 895.076 195.336 893.228 194.28C891.38 193.224 889.928 191.748 888.872 189.852C887.816 187.932 887.288 185.7 887.288 183.156V167.712C887.288 165.216 887.816 163.02 888.872 161.124C889.928 159.204 891.38 157.716 893.228 156.66C895.076 155.58 897.224 155.04 899.672 155.04C903.344 155.04 906.308 156.204 908.564 158.532C910.82 160.86 911.948 163.92 911.948 167.712V176.244H891.464V171.204H906.728V167.532C906.728 165.348 906.092 163.596 904.82 162.276C903.572 160.932 901.856 160.26 899.672 160.26C897.488 160.26 895.748 160.932 894.452 162.276C893.156 163.596 892.508 165.348 892.508 167.532V183.336C892.508 185.52 893.156 187.284 894.452 188.628C895.748 189.972 897.488 190.644 899.672 190.644C901.856 190.644 903.572 189.972 904.82 188.628C906.092 187.284 906.728 185.52 906.728 183.336V182.436H911.948V183.156C911.948 186.948 910.82 190.02 908.564 192.372C906.308 194.7 903.344 195.864 899.672 195.864ZM920.784 195V155.94H926.004V161.556L925.104 160.476C926.016 158.868 927.228 157.632 928.74 156.768C930.252 155.904 932.004 155.472 933.996 155.472H935.688V160.692H932.916C930.828 160.692 929.148 161.34 927.876 162.636C926.628 163.932 926.004 165.672 926.004 167.856V195H920.784ZM947.908 195L936.748 155.94H942.328L951.688 189.42H950.428L959.716 155.94H965.296L954.244 195H947.908ZM971.198 195V155.94H976.418V195H971.198ZM971.198 151.584V143.16H976.418V151.584H971.198ZM997.899 195.864C995.451 195.864 993.303 195.336 991.455 194.28C989.607 193.224 988.155 191.748 987.099 189.852C986.043 187.932 985.515 185.7 985.515 183.156V167.712C985.515 165.216 986.043 163.02 987.099 161.124C988.155 159.204 989.607 157.716 991.455 156.66C993.303 155.58 995.451 155.04 997.899 155.04C1001.57 155.04 1004.53 156.204 1006.79 158.532C1009.05 160.86 1010.17 163.92 1010.17 167.712V168.432H1004.95V167.532C1004.95 165.348 1004.32 163.596 1003.05 162.276C1001.8 160.932 1000.08 160.26 997.899 160.26C995.715 160.26 993.975 160.932 992.679 162.276C991.383 163.596 990.735 165.348 990.735 167.532V183.336C990.735 185.52 991.383 187.284 992.679 188.628C993.975 189.972 995.715 190.644 997.899 190.644C1000.08 190.644 1001.8 189.972 1003.05 188.628C1004.32 187.284 1004.95 185.52 1004.95 183.336V182.436H1010.17V183.156C1010.17 186.948 1009.05 190.02 1006.79 192.372C1004.53 194.7 1001.57 195.864 997.899 195.864ZM1029.19 195.864C1026.74 195.864 1024.59 195.336 1022.74 194.28C1020.9 193.224 1019.44 191.748 1018.39 189.852C1017.33 187.932 1016.8 185.7 1016.8 183.156V167.712C1016.8 165.216 1017.33 163.02 1018.39 161.124C1019.44 159.204 1020.9 157.716 1022.74 156.66C1024.59 155.58 1026.74 155.04 1029.19 155.04C1032.86 155.04 1035.82 156.204 1038.08 158.532C1040.34 160.86 1041.46 163.92 1041.46 167.712V176.244H1020.98V171.204H1036.24V167.532C1036.24 165.348 1035.61 163.596 1034.34 162.276C1033.09 160.932 1031.37 160.26 1029.19 160.26C1027 160.26 1025.26 160.932 1023.97 162.276C1022.67 163.596 1022.02 165.348 1022.02 167.532V183.336C1022.02 185.52 1022.67 187.284 1023.97 188.628C1025.26 189.972 1027 190.644 1029.19 190.644C1031.37 190.644 1033.09 189.972 1034.34 188.628C1035.61 187.284 1036.24 185.52 1036.24 183.336V182.436H1041.46V183.156C1041.46 186.948 1040.34 190.02 1038.08 192.372C1035.82 194.7 1032.86 195.864 1029.19 195.864ZM1052.28 195V186.072H1057.68V195H1052.28ZM1071.9 195V186.072H1077.3V195H1071.9ZM1091.51 195V186.072H1096.91V195H1091.51ZM328.882 280.5V300.75H335.107V303H326.632V280.5H328.882ZM341.561 303.36C340.061 303.36 338.901 302.945 338.081 302.115C337.261 301.285 336.851 300.235 336.851 298.965C336.851 298.175 336.996 297.52 337.286 297C337.576 296.47 337.946 296.04 338.396 295.71C338.856 295.38 339.341 295.115 339.851 294.915C340.461 294.665 341.081 294.47 341.711 294.33C342.351 294.18 342.941 294.025 343.481 293.865C344.021 293.695 344.456 293.465 344.786 293.175C345.116 292.885 345.281 292.475 345.281 291.945V291.555C345.281 290.645 345.006 289.915 344.456 289.365C343.916 288.805 343.196 288.525 342.296 288.525C341.386 288.525 340.666 288.805 340.136 289.365C339.616 289.915 339.356 290.645 339.356 291.555V292.005H337.181V291.63C337.181 290.05 337.651 288.775 338.591 287.805C339.531 286.835 340.766 286.35 342.296 286.35C343.306 286.35 344.196 286.575 344.966 287.025C345.746 287.465 346.356 288.08 346.796 288.87C347.236 289.66 347.456 290.58 347.456 291.63V303H345.281V300.75L345.641 301.23C345.261 301.91 344.726 302.435 344.036 302.805C343.346 303.175 342.521 303.36 341.561 303.36ZM342.011 301.29C343.031 301.29 343.831 301.005 344.411 300.435C344.991 299.855 345.281 299.03 345.281 297.96V295.08C344.671 295.46 343.991 295.72 343.241 295.86C342.491 295.99 341.776 296.17 341.096 296.4C340.496 296.6 340.001 296.885 339.611 297.255C339.221 297.615 339.026 298.13 339.026 298.8C339.026 299.53 339.286 300.13 339.806 300.6C340.326 301.06 341.061 301.29 342.011 301.29ZM352.729 308.4L354.199 303.33L349.459 286.725H351.829L355.684 300.465H355.159L358.954 286.725H361.354L355.069 308.4H352.729ZM374.549 303.36C373.659 303.36 372.854 303.165 372.134 302.775C371.424 302.375 370.859 301.785 370.439 301.005C370.019 300.225 369.809 299.27 369.809 298.14V291.555C369.809 290.435 370.019 289.49 370.439 288.72C370.859 287.94 371.424 287.35 372.134 286.95C372.854 286.55 373.659 286.35 374.549 286.35C375.409 286.35 376.144 286.53 376.754 286.89C377.374 287.24 377.864 287.725 378.224 288.345L377.864 288.84V280.5H380.039V303H377.864V300.885L378.224 301.365C377.864 301.995 377.374 302.485 376.754 302.835C376.144 303.185 375.409 303.36 374.549 303.36ZM374.954 301.185C375.874 301.185 376.589 300.91 377.099 300.36C377.609 299.8 377.864 299.065 377.864 298.155V291.555C377.864 290.645 377.604 289.915 377.084 289.365C376.574 288.805 375.859 288.525 374.939 288.525C374.019 288.525 373.294 288.805 372.764 289.365C372.244 289.915 371.984 290.645 371.984 291.555V298.14C371.984 299.05 372.244 299.785 372.764 300.345C373.294 300.905 374.024 301.185 374.954 301.185ZM388.986 303.36C387.966 303.36 387.071 303.14 386.301 302.7C385.531 302.26 384.926 301.645 384.486 300.855C384.046 300.055 383.826 299.125 383.826 298.065V291.63C383.826 290.59 384.046 289.675 384.486 288.885C384.926 288.085 385.531 287.465 386.301 287.025C387.071 286.575 387.966 286.35 388.986 286.35C390.516 286.35 391.751 286.835 392.691 287.805C393.631 288.775 394.101 290.05 394.101 291.63V298.065C394.101 299.645 393.631 300.925 392.691 301.905C391.751 302.875 390.516 303.36 388.986 303.36ZM388.986 301.185C389.896 301.185 390.611 300.905 391.131 300.345C391.661 299.785 391.926 299.05 391.926 298.14V291.555C391.926 290.645 391.661 289.915 391.131 289.365C390.611 288.805 389.896 288.525 388.986 288.525C388.076 288.525 387.351 288.805 386.811 289.365C386.271 289.915 386.001 290.645 386.001 291.555V298.14C386.001 299.05 386.271 299.785 386.811 300.345C387.351 300.905 388.076 301.185 388.986 301.185ZM398.984 303L396.389 286.725H398.654L400.469 300.615L400.139 300.585L402.809 286.725H404.864L407.534 300.585L407.219 300.615L409.004 286.725H411.284L408.689 303H406.229L403.649 290.46H404.069L401.459 303H398.984ZM414.247 303V286.725H416.422V288.9L416.047 288.465C416.427 287.785 416.932 287.265 417.562 286.905C418.192 286.535 418.927 286.35 419.767 286.35C421.127 286.35 422.222 286.82 423.052 287.76C423.882 288.7 424.297 289.965 424.297 291.555V303H422.122V291.555C422.122 290.645 421.862 289.915 421.342 289.365C420.832 288.805 420.152 288.525 419.302 288.525C418.432 288.525 417.732 288.805 417.202 289.365C416.682 289.915 416.422 290.645 416.422 291.555V303H414.247ZM438.504 303.36C437.004 303.36 435.844 302.945 435.024 302.115C434.204 301.285 433.794 300.235 433.794 298.965C433.794 298.175 433.939 297.52 434.229 297C434.519 296.47 434.889 296.04 435.339 295.71C435.799 295.38 436.284 295.115 436.794 294.915C437.404 294.665 438.024 294.47 438.654 294.33C439.294 294.18 439.884 294.025 440.424 293.865C440.964 293.695 441.399 293.465 441.729 293.175C442.059 292.885 442.224 292.475 442.224 291.945V291.555C442.224 290.645 441.949 289.915 441.399 289.365C440.859 288.805 440.139 288.525 439.239 288.525C438.329 288.525 437.609 288.805 437.079 289.365C436.559 289.915 436.299 290.645 436.299 291.555V292.005H434.124V291.63C434.124 290.05 434.594 288.775 435.534 287.805C436.474 286.835 437.709 286.35 439.239 286.35C440.249 286.35 441.139 286.575 441.909 287.025C442.689 287.465 443.299 288.08 443.739 288.87C444.179 289.66 444.399 290.58 444.399 291.63V303H442.224V300.75L442.584 301.23C442.204 301.91 441.669 302.435 440.979 302.805C440.289 303.175 439.464 303.36 438.504 303.36ZM438.954 301.29C439.974 301.29 440.774 301.005 441.354 300.435C441.934 299.855 442.224 299.03 442.224 297.96V295.08C441.614 295.46 440.934 295.72 440.184 295.86C439.434 295.99 438.719 296.17 438.039 296.4C437.439 296.6 436.944 296.885 436.554 297.255C436.164 297.615 435.969 298.13 435.969 298.8C435.969 299.53 436.229 300.13 436.749 300.6C437.269 301.06 438.004 301.29 438.954 301.29ZM448.407 303V286.725H450.582V289.065L450.207 288.615C450.587 287.945 451.092 287.43 451.722 287.07C452.352 286.71 453.082 286.53 453.912 286.53H454.617V288.705H453.462C452.592 288.705 451.892 288.975 451.362 289.515C450.842 290.055 450.582 290.78 450.582 291.69V303H448.407ZM461.554 303.36C460.534 303.36 459.639 303.14 458.869 302.7C458.099 302.26 457.494 301.645 457.054 300.855C456.614 300.055 456.394 299.125 456.394 298.065V291.63C456.394 290.59 456.614 289.675 457.054 288.885C457.494 288.085 458.099 287.465 458.869 287.025C459.639 286.575 460.534 286.35 461.554 286.35C463.084 286.35 464.319 286.835 465.259 287.805C466.199 288.775 466.669 290.05 466.669 291.63V291.93H464.494V291.555C464.494 290.645 464.229 289.915 463.699 289.365C463.179 288.805 462.464 288.525 461.554 288.525C460.644 288.525 459.919 288.805 459.379 289.365C458.839 289.915 458.569 290.645 458.569 291.555V298.14C458.569 299.05 458.839 299.785 459.379 300.345C459.919 300.905 460.644 301.185 461.554 301.185C462.464 301.185 463.179 300.905 463.699 300.345C464.229 299.785 464.494 299.05 464.494 298.14V297.765H466.669V298.065C466.669 299.645 466.199 300.925 465.259 301.905C464.319 302.875 463.084 303.36 461.554 303.36ZM469.911 303V280.5H472.086V288.855L471.726 288.39C472.096 287.74 472.591 287.235 473.211 286.875C473.841 286.515 474.581 286.335 475.431 286.335C476.291 286.335 477.061 286.53 477.741 286.92C478.431 287.3 478.971 287.86 479.361 288.6C479.761 289.34 479.961 290.245 479.961 291.315V303H477.786V291.54C477.786 290.62 477.526 289.885 477.006 289.335C476.496 288.785 475.816 288.51 474.966 288.51C474.096 288.51 473.396 288.785 472.866 289.335C472.346 289.885 472.086 290.62 472.086 291.54V303H469.911ZM484.032 303V286.725H486.207V303H484.032ZM484.032 284.91V281.4H486.207V284.91H484.032ZM496.583 303.18C495.033 303.18 493.788 302.69 492.848 301.71C491.918 300.72 491.453 299.395 491.453 297.735V288.75H488.528V286.695H491.453V282.6H493.628V286.695H497.678V288.75H493.628V297.735C493.628 298.725 493.898 299.52 494.438 300.12C494.978 300.71 495.693 301.005 496.583 301.005H497.678V303.18H496.583ZM505.119 303.36C504.099 303.36 503.204 303.14 502.434 302.7C501.664 302.26 501.059 301.645 500.619 300.855C500.179 300.055 499.959 299.125 499.959 298.065V291.63C499.959 290.59 500.179 289.675 500.619 288.885C501.059 288.085 501.664 287.465 502.434 287.025C503.204 286.575 504.099 286.35 505.119 286.35C506.649 286.35 507.884 286.835 508.824 287.805C509.764 288.775 510.234 290.05 510.234 291.63V295.185H501.699V293.085H508.059V291.555C508.059 290.645 507.794 289.915 507.264 289.365C506.744 288.805 506.029 288.525 505.119 288.525C504.209 288.525 503.484 288.805 502.944 289.365C502.404 289.915 502.134 290.645 502.134 291.555V298.14C502.134 299.05 502.404 299.785 502.944 300.345C503.484 300.905 504.209 301.185 505.119 301.185C506.029 301.185 506.744 300.905 507.264 300.345C507.794 299.785 508.059 299.05 508.059 298.14V297.765H510.234V298.065C510.234 299.645 509.764 300.925 508.824 301.905C507.884 302.875 506.649 303.36 505.119 303.36ZM518.595 303.36C517.575 303.36 516.68 303.14 515.91 302.7C515.14 302.26 514.535 301.645 514.095 300.855C513.655 300.055 513.435 299.125 513.435 298.065V291.63C513.435 290.59 513.655 289.675 514.095 288.885C514.535 288.085 515.14 287.465 515.91 287.025C516.68 286.575 517.575 286.35 518.595 286.35C520.125 286.35 521.36 286.835 522.3 287.805C523.24 288.775 523.71 290.05 523.71 291.63V291.93H521.535V291.555C521.535 290.645 521.27 289.915 520.74 289.365C520.22 288.805 519.505 288.525 518.595 288.525C517.685 288.525 516.96 288.805 516.42 289.365C515.88 289.915 515.61 290.645 515.61 291.555V298.14C515.61 299.05 515.88 299.785 516.42 300.345C516.96 300.905 517.685 301.185 518.595 301.185C519.505 301.185 520.22 300.905 520.74 300.345C521.27 299.785 521.535 299.05 521.535 298.14V297.765H523.71V298.065C523.71 299.645 523.24 300.925 522.3 301.905C521.36 302.875 520.125 303.36 518.595 303.36ZM533.057 303.18C531.507 303.18 530.262 302.69 529.322 301.71C528.392 300.72 527.927 299.395 527.927 297.735V288.75H525.002V286.695H527.927V282.6H530.102V286.695H534.152V288.75H530.102V297.735C530.102 298.725 530.372 299.52 530.912 300.12C531.452 300.71 532.167 301.005 533.057 301.005H534.152V303.18H533.057ZM541.248 303.36C540.388 303.36 539.618 303.165 538.938 302.775C538.258 302.385 537.718 301.805 537.318 301.035C536.918 300.255 536.718 299.295 536.718 298.155V286.725H538.893V298.155C538.893 299.065 539.153 299.8 539.673 300.36C540.193 300.91 540.878 301.185 541.728 301.185C542.598 301.185 543.293 300.91 543.813 300.36C544.333 299.8 544.593 299.065 544.593 298.155V286.725H546.768V303H544.593V300.84L544.968 301.305C544.598 301.955 544.098 302.46 543.468 302.82C542.838 303.18 542.098 303.36 541.248 303.36ZM551.034 303V286.725H553.209V289.065L552.834 288.615C553.214 287.945 553.719 287.43 554.349 287.07C554.979 286.71 555.709 286.53 556.539 286.53H557.244V288.705H556.089C555.219 288.705 554.519 288.975 553.989 289.515C553.469 290.055 553.209 290.78 553.209 291.69V303H551.034ZM564.181 303.36C563.161 303.36 562.266 303.14 561.496 302.7C560.726 302.26 560.121 301.645 559.681 300.855C559.241 300.055 559.021 299.125 559.021 298.065V291.63C559.021 290.59 559.241 289.675 559.681 288.885C560.121 288.085 560.726 287.465 561.496 287.025C562.266 286.575 563.161 286.35 564.181 286.35C565.711 286.35 566.946 286.835 567.886 287.805C568.826 288.775 569.296 290.05 569.296 291.63V295.185H560.761V293.085H567.121V291.555C567.121 290.645 566.856 289.915 566.326 289.365C565.806 288.805 565.091 288.525 564.181 288.525C563.271 288.525 562.546 288.805 562.006 289.365C561.466 289.915 561.196 290.645 561.196 291.555V298.14C561.196 299.05 561.466 299.785 562.006 300.345C562.546 300.905 563.271 301.185 564.181 301.185C565.091 301.185 565.806 300.905 566.326 300.345C566.856 299.785 567.121 299.05 567.121 298.14V297.765H569.296V298.065C569.296 299.645 568.826 300.925 567.886 301.905C566.946 302.875 565.711 303.36 564.181 303.36ZM573.803 303V299.28H576.053V303H573.803ZM293.131 357.48C291.531 357.48 290.241 356.97 289.261 355.95C288.291 354.93 287.806 353.59 287.806 351.93V339.57C287.806 337.9 288.291 336.56 289.261 335.55C290.241 334.53 291.531 334.02 293.131 334.02C294.741 334.02 296.031 334.53 297.001 335.55C297.971 336.56 298.456 337.9 298.456 339.57V351.93C298.456 353.59 297.971 354.93 297.001 355.95C296.031 356.97 294.741 357.48 293.131 357.48ZM293.131 355.23C294.061 355.23 294.806 354.93 295.366 354.33C295.926 353.72 296.206 352.92 296.206 351.93V339.57C296.206 338.58 295.926 337.785 295.366 337.185C294.806 336.575 294.061 336.27 293.131 336.27C292.201 336.27 291.456 336.575 290.896 337.185C290.336 337.785 290.056 338.58 290.056 339.57V351.93C290.056 352.92 290.336 353.72 290.896 354.33C291.456 354.93 292.201 355.23 293.131 355.23ZM302.89 362.4V340.725H305.065V342.84L304.705 342.345C305.065 341.725 305.55 341.24 306.16 340.89C306.78 340.53 307.52 340.35 308.38 340.35C309.27 340.35 310.07 340.55 310.78 340.95C311.5 341.35 312.07 341.94 312.49 342.72C312.91 343.49 313.12 344.435 313.12 345.555V352.14C313.12 353.27 312.91 354.225 312.49 355.005C312.07 355.785 311.5 356.375 310.78 356.775C310.07 357.165 309.27 357.36 308.38 357.36C307.52 357.36 306.78 357.185 306.16 356.835C305.55 356.485 305.065 355.995 304.705 355.365L305.065 354.885V362.4H302.89ZM307.975 355.185C308.905 355.185 309.63 354.905 310.15 354.345C310.68 353.785 310.945 353.05 310.945 352.14V345.555C310.945 344.645 310.68 343.915 310.15 343.365C309.63 342.805 308.91 342.525 307.99 342.525C307.06 342.525 306.34 342.805 305.83 343.365C305.32 343.915 305.065 344.645 305.065 345.555V352.155C305.065 353.065 305.32 353.8 305.83 354.36C306.34 354.91 307.055 355.185 307.975 355.185ZM323.057 357.18C321.507 357.18 320.262 356.69 319.322 355.71C318.392 354.72 317.927 353.395 317.927 351.735V342.75H315.002V340.695H317.927V336.6H320.102V340.695H324.152V342.75H320.102V351.735C320.102 352.725 320.372 353.52 320.912 354.12C321.452 354.71 322.167 355.005 323.057 355.005H324.152V357.18H323.057ZM326.913 357V340.725H329.088V357H326.913ZM326.913 338.91V335.4H329.088V338.91H326.913ZM333.359 357V340.725H335.534V342.885L335.174 342.42C335.544 341.76 336.039 341.25 336.659 340.89C337.289 340.53 338.024 340.35 338.864 340.35C339.884 340.35 340.774 340.61 341.534 341.13C342.294 341.65 342.829 342.415 343.139 343.425L342.614 343.365C342.924 342.435 343.429 341.7 344.129 341.16C344.839 340.62 345.709 340.35 346.739 340.35C347.619 340.35 348.399 340.545 349.079 340.935C349.759 341.325 350.294 341.895 350.684 342.645C351.084 343.385 351.284 344.28 351.284 345.33V357H349.109V345.555C349.109 344.645 348.849 343.915 348.329 343.365C347.819 342.805 347.139 342.525 346.289 342.525C345.419 342.525 344.719 342.805 344.189 343.365C343.669 343.915 343.409 344.645 343.409 345.555V357H341.234V345.555C341.234 344.645 340.974 343.915 340.454 343.365C339.944 342.805 339.264 342.525 338.414 342.525C337.544 342.525 336.844 342.805 336.314 343.365C335.794 343.915 335.534 344.645 335.534 345.555V357H333.359ZM355.36 357V340.725H357.535V357H355.36ZM355.36 338.91V335.4H357.535V338.91H355.36ZM360.396 357V355.29L368.121 342.03L368.631 342.9H360.576V340.725H370.311V342.42L362.676 355.71L362.151 354.825H370.131V357H360.396ZM377.824 357.36C376.804 357.36 375.909 357.14 375.139 356.7C374.369 356.26 373.764 355.645 373.324 354.855C372.884 354.055 372.664 353.125 372.664 352.065V345.63C372.664 344.59 372.884 343.675 373.324 342.885C373.764 342.085 374.369 341.465 375.139 341.025C375.909 340.575 376.804 340.35 377.824 340.35C379.354 340.35 380.589 340.835 381.529 341.805C382.469 342.775 382.939 344.05 382.939 345.63V349.185H374.404V347.085H380.764V345.555C380.764 344.645 380.499 343.915 379.969 343.365C379.449 342.805 378.734 342.525 377.824 342.525C376.914 342.525 376.189 342.805 375.649 343.365C375.109 343.915 374.839 344.645 374.839 345.555V352.14C374.839 353.05 375.109 353.785 375.649 354.345C376.189 354.905 376.914 355.185 377.824 355.185C378.734 355.185 379.449 354.905 379.969 354.345C380.499 353.785 380.764 353.05 380.764 352.14V351.765H382.939V352.065C382.939 353.645 382.469 354.925 381.529 355.905C380.589 356.875 379.354 357.36 377.824 357.36ZM397.716 357.36C396.696 357.36 395.801 357.14 395.031 356.7C394.261 356.26 393.656 355.645 393.216 354.855C392.776 354.055 392.556 353.125 392.556 352.065V345.63C392.556 344.59 392.776 343.675 393.216 342.885C393.656 342.085 394.261 341.465 395.031 341.025C395.801 340.575 396.696 340.35 397.716 340.35C399.246 340.35 400.481 340.835 401.421 341.805C402.361 342.775 402.831 344.05 402.831 345.63V345.93H400.656V345.555C400.656 344.645 400.391 343.915 399.861 343.365C399.341 342.805 398.626 342.525 397.716 342.525C396.806 342.525 396.081 342.805 395.541 343.365C395.001 343.915 394.731 344.645 394.731 345.555V352.14C394.731 353.05 395.001 353.785 395.541 354.345C396.081 354.905 396.806 355.185 397.716 355.185C398.626 355.185 399.341 354.905 399.861 354.345C400.391 353.785 400.656 353.05 400.656 352.14V351.765H402.831V352.065C402.831 353.645 402.361 354.925 401.421 355.905C400.481 356.875 399.246 357.36 397.716 357.36ZM410.753 357.36C409.733 357.36 408.838 357.14 408.068 356.7C407.298 356.26 406.693 355.645 406.253 354.855C405.813 354.055 405.593 353.125 405.593 352.065V345.63C405.593 344.59 405.813 343.675 406.253 342.885C406.693 342.085 407.298 341.465 408.068 341.025C408.838 340.575 409.733 340.35 410.753 340.35C412.283 340.35 413.518 340.835 414.458 341.805C415.398 342.775 415.868 344.05 415.868 345.63V352.065C415.868 353.645 415.398 354.925 414.458 355.905C413.518 356.875 412.283 357.36 410.753 357.36ZM410.753 355.185C411.663 355.185 412.378 354.905 412.898 354.345C413.428 353.785 413.693 353.05 413.693 352.14V345.555C413.693 344.645 413.428 343.915 412.898 343.365C412.378 342.805 411.663 342.525 410.753 342.525C409.843 342.525 409.118 342.805 408.578 343.365C408.038 343.915 407.768 344.645 407.768 345.555V352.14C407.768 353.05 408.038 353.785 408.578 354.345C409.118 354.905 409.843 355.185 410.753 355.185ZM419.667 357V340.725H421.842V342.885L421.482 342.42C421.852 341.76 422.347 341.25 422.967 340.89C423.597 340.53 424.332 340.35 425.172 340.35C426.192 340.35 427.082 340.61 427.842 341.13C428.602 341.65 429.137 342.415 429.447 343.425L428.922 343.365C429.232 342.435 429.737 341.7 430.437 341.16C431.147 340.62 432.017 340.35 433.047 340.35C433.927 340.35 434.707 340.545 435.387 340.935C436.067 341.325 436.602 341.895 436.992 342.645C437.392 343.385 437.592 344.28 437.592 345.33V357H435.417V345.555C435.417 344.645 435.157 343.915 434.637 343.365C434.127 342.805 433.447 342.525 432.597 342.525C431.727 342.525 431.027 342.805 430.497 343.365C429.977 343.915 429.717 344.645 429.717 345.555V357H427.542V345.555C427.542 344.645 427.282 343.915 426.762 343.365C426.252 342.805 425.572 342.525 424.722 342.525C423.852 342.525 423.152 342.805 422.622 343.365C422.102 343.915 421.842 344.645 421.842 345.555V357H419.667ZM441.669 362.4V340.725H443.844V342.84L443.484 342.345C443.844 341.725 444.329 341.24 444.939 340.89C445.559 340.53 446.299 340.35 447.159 340.35C448.049 340.35 448.849 340.55 449.559 340.95C450.279 341.35 450.849 341.94 451.269 342.72C451.689 343.49 451.899 344.435 451.899 345.555V352.14C451.899 353.27 451.689 354.225 451.269 355.005C450.849 355.785 450.279 356.375 449.559 356.775C448.849 357.165 448.049 357.36 447.159 357.36C446.299 357.36 445.559 357.185 444.939 356.835C444.329 356.485 443.844 355.995 443.484 355.365L443.844 354.885V362.4H441.669ZM446.754 355.185C447.684 355.185 448.409 354.905 448.929 354.345C449.459 353.785 449.724 353.05 449.724 352.14V345.555C449.724 344.645 449.459 343.915 448.929 343.365C448.409 342.805 447.689 342.525 446.769 342.525C445.839 342.525 445.119 342.805 444.609 343.365C444.099 343.915 443.844 344.645 443.844 345.555V352.155C443.844 353.065 444.099 353.8 444.609 354.36C445.119 354.91 445.834 355.185 446.754 355.185ZM460.412 357.36C459.392 357.36 458.497 357.14 457.727 356.7C456.957 356.26 456.352 355.645 455.912 354.855C455.472 354.055 455.252 353.125 455.252 352.065V345.63C455.252 344.59 455.472 343.675 455.912 342.885C456.352 342.085 456.957 341.465 457.727 341.025C458.497 340.575 459.392 340.35 460.412 340.35C461.942 340.35 463.177 340.835 464.117 341.805C465.057 342.775 465.527 344.05 465.527 345.63V352.065C465.527 353.645 465.057 354.925 464.117 355.905C463.177 356.875 461.942 357.36 460.412 357.36ZM460.412 355.185C461.322 355.185 462.037 354.905 462.557 354.345C463.087 353.785 463.352 353.05 463.352 352.14V345.555C463.352 344.645 463.087 343.915 462.557 343.365C462.037 342.805 461.322 342.525 460.412 342.525C459.502 342.525 458.777 342.805 458.237 343.365C457.697 343.915 457.427 344.645 457.427 345.555V352.14C457.427 353.05 457.697 353.785 458.237 354.345C458.777 354.905 459.502 355.185 460.412 355.185ZM469.325 357V340.725H471.5V342.9L471.125 342.465C471.505 341.785 472.01 341.265 472.64 340.905C473.27 340.535 474.005 340.35 474.845 340.35C476.205 340.35 477.3 340.82 478.13 341.76C478.96 342.7 479.375 343.965 479.375 345.555V357H477.2V345.555C477.2 344.645 476.94 343.915 476.42 343.365C475.91 342.805 475.23 342.525 474.38 342.525C473.51 342.525 472.81 342.805 472.28 343.365C471.76 343.915 471.5 344.645 471.5 345.555V357H469.325ZM488.126 357.36C487.106 357.36 486.211 357.14 485.441 356.7C484.671 356.26 484.066 355.645 483.626 354.855C483.186 354.055 482.966 353.125 482.966 352.065V345.63C482.966 344.59 483.186 343.675 483.626 342.885C484.066 342.085 484.671 341.465 485.441 341.025C486.211 340.575 487.106 340.35 488.126 340.35C489.656 340.35 490.891 340.835 491.831 341.805C492.771 342.775 493.241 344.05 493.241 345.63V349.185H484.706V347.085H491.066V345.555C491.066 344.645 490.801 343.915 490.271 343.365C489.751 342.805 489.036 342.525 488.126 342.525C487.216 342.525 486.491 342.805 485.951 343.365C485.411 343.915 485.141 344.645 485.141 345.555V352.14C485.141 353.05 485.411 353.785 485.951 354.345C486.491 354.905 487.216 355.185 488.126 355.185C489.036 355.185 489.751 354.905 490.271 354.345C490.801 353.785 491.066 353.05 491.066 352.14V351.765H493.241V352.065C493.241 353.645 492.771 354.925 491.831 355.905C490.891 356.875 489.656 357.36 488.126 357.36ZM496.923 357V340.725H499.098V342.9L498.723 342.465C499.103 341.785 499.608 341.265 500.238 340.905C500.868 340.535 501.603 340.35 502.443 340.35C503.803 340.35 504.898 340.82 505.728 341.76C506.558 342.7 506.973 343.965 506.973 345.555V357H504.798V345.555C504.798 344.645 504.538 343.915 504.018 343.365C503.508 342.805 502.828 342.525 501.978 342.525C501.108 342.525 500.408 342.805 499.878 343.365C499.358 343.915 499.098 344.645 499.098 345.555V357H496.923ZM517.149 357.18C515.599 357.18 514.354 356.69 513.414 355.71C512.484 354.72 512.019 353.395 512.019 351.735V342.75H509.094V340.695H512.019V336.6H514.194V340.695H518.244V342.75H514.194V351.735C514.194 352.725 514.464 353.52 515.004 354.12C515.544 354.71 516.259 355.005 517.149 355.005H518.244V357.18H517.149ZM525.355 357.36C523.805 357.36 522.56 356.915 521.62 356.025C520.69 355.125 520.225 353.94 520.225 352.47V351.945H522.4V352.56C522.4 353.35 522.665 353.985 523.195 354.465C523.735 354.945 524.445 355.185 525.325 355.185C526.175 355.185 526.85 354.945 527.35 354.465C527.85 353.985 528.1 353.29 528.1 352.38C528.1 351.79 527.985 351.34 527.755 351.03C527.535 350.71 527.215 350.47 526.795 350.31C526.375 350.15 525.865 350.01 525.265 349.89C524.275 349.68 523.4 349.45 522.64 349.2C521.88 348.94 521.285 348.53 520.855 347.97C520.435 347.41 520.225 346.575 520.225 345.465C520.225 343.805 520.68 342.54 521.59 341.67C522.51 340.79 523.715 340.35 525.205 340.35C526.755 340.35 527.985 340.8 528.895 341.7C529.815 342.59 530.275 343.765 530.275 345.225V345.735H528.1V345.15C528.1 344.35 527.84 343.715 527.32 343.245C526.81 342.765 526.115 342.525 525.235 342.525C524.375 342.525 523.685 342.77 523.165 343.26C522.655 343.74 522.4 344.435 522.4 345.345C522.4 345.935 522.51 346.39 522.73 346.71C522.96 347.02 523.29 347.25 523.72 347.4C524.15 347.55 524.665 347.69 525.265 347.82C526.245 348.02 527.11 348.25 527.86 348.51C528.61 348.77 529.2 349.185 529.63 349.755C530.06 350.325 530.275 351.17 530.275 352.29C530.275 353.92 529.825 355.175 528.925 356.055C528.035 356.925 526.845 357.36 525.355 357.36ZM534.574 357V353.28H536.824V357H534.574ZM249.64 411V388.5H254.74C256.35 388.5 257.64 389.01 258.61 390.03C259.58 391.04 260.065 392.38 260.065 394.05V405.45C260.065 407.11 259.58 408.45 258.61 409.47C257.64 410.49 256.35 411 254.74 411H249.64ZM251.89 408.75H254.74C255.67 408.75 256.415 408.45 256.975 407.85C257.535 407.24 257.815 406.44 257.815 405.45V394.05C257.815 393.06 257.535 392.265 256.975 391.665C256.415 391.055 255.67 390.75 254.74 390.75H251.89V408.75ZM269.074 411.36C268.054 411.36 267.159 411.14 266.389 410.7C265.619 410.26 265.014 409.645 264.574 408.855C264.134 408.055 263.914 407.125 263.914 406.065V399.63C263.914 398.59 264.134 397.675 264.574 396.885C265.014 396.085 265.619 395.465 266.389 395.025C267.159 394.575 268.054 394.35 269.074 394.35C270.604 394.35 271.839 394.835 272.779 395.805C273.719 396.775 274.189 398.05 274.189 399.63V403.185H265.654V401.085H272.014V399.555C272.014 398.645 271.749 397.915 271.219 397.365C270.699 396.805 269.984 396.525 269.074 396.525C268.164 396.525 267.439 396.805 266.899 397.365C266.359 397.915 266.089 398.645 266.089 399.555V406.14C266.089 407.05 266.359 407.785 266.899 408.345C267.439 408.905 268.164 409.185 269.074 409.185C269.984 409.185 270.699 408.905 271.219 408.345C271.749 407.785 272.014 407.05 272.014 406.14V405.765H274.189V406.065C274.189 407.645 273.719 408.925 272.779 409.905C271.839 410.875 270.604 411.36 269.074 411.36ZM280.705 411L276.055 394.725H278.38L282.28 408.675H281.755L285.625 394.725H287.95L283.345 411H280.705ZM294.884 411.36C293.864 411.36 292.969 411.14 292.199 410.7C291.429 410.26 290.824 409.645 290.384 408.855C289.944 408.055 289.724 407.125 289.724 406.065V399.63C289.724 398.59 289.944 397.675 290.384 396.885C290.824 396.085 291.429 395.465 292.199 395.025C292.969 394.575 293.864 394.35 294.884 394.35C296.414 394.35 297.649 394.835 298.589 395.805C299.529 396.775 299.999 398.05 299.999 399.63V403.185H291.464V401.085H297.824V399.555C297.824 398.645 297.559 397.915 297.029 397.365C296.509 396.805 295.794 396.525 294.884 396.525C293.974 396.525 293.249 396.805 292.709 397.365C292.169 397.915 291.899 398.645 291.899 399.555V406.14C291.899 407.05 292.169 407.785 292.709 408.345C293.249 408.905 293.974 409.185 294.884 409.185C295.794 409.185 296.509 408.905 297.029 408.345C297.559 407.785 297.824 407.05 297.824 406.14V405.765H299.999V406.065C299.999 407.645 299.529 408.925 298.589 409.905C297.649 410.875 296.414 411.36 294.884 411.36ZM303.681 411V388.5H305.856V411H303.681ZM314.806 411.36C313.786 411.36 312.891 411.14 312.121 410.7C311.351 410.26 310.746 409.645 310.306 408.855C309.866 408.055 309.646 407.125 309.646 406.065V399.63C309.646 398.59 309.866 397.675 310.306 396.885C310.746 396.085 311.351 395.465 312.121 395.025C312.891 394.575 313.786 394.35 314.806 394.35C316.336 394.35 317.571 394.835 318.511 395.805C319.451 396.775 319.921 398.05 319.921 399.63V406.065C319.921 407.645 319.451 408.925 318.511 409.905C317.571 410.875 316.336 411.36 314.806 411.36ZM314.806 409.185C315.716 409.185 316.431 408.905 316.951 408.345C317.481 407.785 317.746 407.05 317.746 406.14V399.555C317.746 398.645 317.481 397.915 316.951 397.365C316.431 396.805 315.716 396.525 314.806 396.525C313.896 396.525 313.171 396.805 312.631 397.365C312.091 397.915 311.821 398.645 311.821 399.555V406.14C311.821 407.05 312.091 407.785 312.631 408.345C313.171 408.905 313.896 409.185 314.806 409.185ZM323.72 416.4V394.725H325.895V396.84L325.535 396.345C325.895 395.725 326.38 395.24 326.99 394.89C327.61 394.53 328.35 394.35 329.21 394.35C330.1 394.35 330.9 394.55 331.61 394.95C332.33 395.35 332.9 395.94 333.32 396.72C333.74 397.49 333.95 398.435 333.95 399.555V406.14C333.95 407.27 333.74 408.225 333.32 409.005C332.9 409.785 332.33 410.375 331.61 410.775C330.9 411.165 330.1 411.36 329.21 411.36C328.35 411.36 327.61 411.185 326.99 410.835C326.38 410.485 325.895 409.995 325.535 409.365L325.895 408.885V416.4H323.72ZM328.805 409.185C329.735 409.185 330.46 408.905 330.98 408.345C331.51 407.785 331.775 407.05 331.775 406.14V399.555C331.775 398.645 331.51 397.915 330.98 397.365C330.46 396.805 329.74 396.525 328.82 396.525C327.89 396.525 327.17 396.805 326.66 397.365C326.15 397.915 325.895 398.645 325.895 399.555V406.155C325.895 407.065 326.15 407.8 326.66 408.36C327.17 408.91 327.885 409.185 328.805 409.185ZM344.198 411V394.725H346.373V396.9L345.998 396.465C346.378 395.785 346.883 395.265 347.513 394.905C348.143 394.535 348.878 394.35 349.718 394.35C351.078 394.35 352.173 394.82 353.003 395.76C353.833 396.7 354.248 397.965 354.248 399.555V411H352.073V399.555C352.073 398.645 351.813 397.915 351.293 397.365C350.783 396.805 350.103 396.525 349.253 396.525C348.383 396.525 347.683 396.805 347.153 397.365C346.633 397.915 346.373 398.645 346.373 399.555V411H344.198ZM362.999 411.36C361.979 411.36 361.084 411.14 360.314 410.7C359.544 410.26 358.939 409.645 358.499 408.855C358.059 408.055 357.839 407.125 357.839 406.065V399.63C357.839 398.59 358.059 397.675 358.499 396.885C358.939 396.085 359.544 395.465 360.314 395.025C361.084 394.575 361.979 394.35 362.999 394.35C364.529 394.35 365.764 394.835 366.704 395.805C367.644 396.775 368.114 398.05 368.114 399.63V403.185H359.579V401.085H365.939V399.555C365.939 398.645 365.674 397.915 365.144 397.365C364.624 396.805 363.909 396.525 362.999 396.525C362.089 396.525 361.364 396.805 360.824 397.365C360.284 397.915 360.014 398.645 360.014 399.555V406.14C360.014 407.05 360.284 407.785 360.824 408.345C361.364 408.905 362.089 409.185 362.999 409.185C363.909 409.185 364.624 408.905 365.144 408.345C365.674 407.785 365.939 407.05 365.939 406.14V405.765H368.114V406.065C368.114 407.645 367.644 408.925 366.704 409.905C365.764 410.875 364.529 411.36 362.999 411.36ZM373.086 411L370.491 394.725H372.756L374.571 408.615L374.241 408.585L376.911 394.725H378.966L381.636 408.585L381.321 408.615L383.106 394.725H385.386L382.791 411H380.331L377.751 398.46H378.171L375.561 411H373.086ZM395.815 411V396.78H392.8V394.725H395.815V393.645C395.815 392.575 396.025 391.63 396.445 390.81C396.875 389.99 397.475 389.35 398.245 388.89C399.025 388.43 399.935 388.2 400.975 388.2H402.115V390.375H400.975C400.065 390.375 399.34 390.675 398.8 391.275C398.26 391.875 397.99 392.665 397.99 393.645V394.725H402.115V396.78H397.99V411H395.815ZM409.083 411.36C408.063 411.36 407.168 411.14 406.398 410.7C405.628 410.26 405.023 409.645 404.583 408.855C404.143 408.055 403.923 407.125 403.923 406.065V399.63C403.923 398.59 404.143 397.675 404.583 396.885C405.023 396.085 405.628 395.465 406.398 395.025C407.168 394.575 408.063 394.35 409.083 394.35C410.613 394.35 411.848 394.835 412.788 395.805C413.728 396.775 414.198 398.05 414.198 399.63V403.185H405.663V401.085H412.023V399.555C412.023 398.645 411.758 397.915 411.228 397.365C410.708 396.805 409.993 396.525 409.083 396.525C408.173 396.525 407.448 396.805 406.908 397.365C406.368 397.915 406.098 398.645 406.098 399.555V406.14C406.098 407.05 406.368 407.785 406.908 408.345C407.448 408.905 408.173 409.185 409.083 409.185C409.993 409.185 410.708 408.905 411.228 408.345C411.758 407.785 412.023 407.05 412.023 406.14V405.765H414.198V406.065C414.198 407.645 413.728 408.925 412.788 409.905C411.848 410.875 410.613 411.36 409.083 411.36ZM421.6 411.36C420.1 411.36 418.94 410.945 418.12 410.115C417.3 409.285 416.89 408.235 416.89 406.965C416.89 406.175 417.035 405.52 417.325 405C417.615 404.47 417.985 404.04 418.435 403.71C418.895 403.38 419.38 403.115 419.89 402.915C420.5 402.665 421.12 402.47 421.75 402.33C422.39 402.18 422.98 402.025 423.52 401.865C424.06 401.695 424.495 401.465 424.825 401.175C425.155 400.885 425.32 400.475 425.32 399.945V399.555C425.32 398.645 425.045 397.915 424.495 397.365C423.955 396.805 423.235 396.525 422.335 396.525C421.425 396.525 420.705 396.805 420.175 397.365C419.655 397.915 419.395 398.645 419.395 399.555V400.005H417.22V399.63C417.22 398.05 417.69 396.775 418.63 395.805C419.57 394.835 420.805 394.35 422.335 394.35C423.345 394.35 424.235 394.575 425.005 395.025C425.785 395.465 426.395 396.08 426.835 396.87C427.275 397.66 427.495 398.58 427.495 399.63V411H425.32V408.75L425.68 409.23C425.3 409.91 424.765 410.435 424.075 410.805C423.385 411.175 422.56 411.36 421.6 411.36ZM422.05 409.29C423.07 409.29 423.87 409.005 424.45 408.435C425.03 407.855 425.32 407.03 425.32 405.96V403.08C424.71 403.46 424.03 403.72 423.28 403.86C422.53 403.99 421.815 404.17 421.135 404.4C420.535 404.6 420.04 404.885 419.65 405.255C419.26 405.615 419.065 406.13 419.065 406.8C419.065 407.53 419.325 408.13 419.845 408.6C420.365 409.06 421.1 409.29 422.05 409.29ZM437.608 411.18C436.058 411.18 434.813 410.69 433.873 409.71C432.943 408.72 432.478 407.395 432.478 405.735V396.75H429.553V394.695H432.478V390.6H434.653V394.695H438.703V396.75H434.653V405.735C434.653 406.725 434.923 407.52 435.463 408.12C436.003 408.71 436.718 409.005 437.608 409.005H438.703V411.18H437.608ZM445.799 411.36C444.939 411.36 444.169 411.165 443.489 410.775C442.809 410.385 442.269 409.805 441.869 409.035C441.469 408.255 441.269 407.295 441.269 406.155V394.725H443.444V406.155C443.444 407.065 443.704 407.8 444.224 408.36C444.744 408.91 445.429 409.185 446.279 409.185C447.149 409.185 447.844 408.91 448.364 408.36C448.884 407.8 449.144 407.065 449.144 406.155V394.725H451.319V411H449.144V408.84L449.519 409.305C449.149 409.955 448.649 410.46 448.019 410.82C447.389 411.18 446.649 411.36 445.799 411.36ZM455.585 411V394.725H457.76V397.065L457.385 396.615C457.765 395.945 458.27 395.43 458.9 395.07C459.53 394.71 460.26 394.53 461.09 394.53H461.795V396.705H460.64C459.77 396.705 459.07 396.975 458.54 397.515C458.02 398.055 457.76 398.78 457.76 399.69V411H455.585ZM468.732 411.36C467.712 411.36 466.817 411.14 466.047 410.7C465.277 410.26 464.672 409.645 464.232 408.855C463.792 408.055 463.572 407.125 463.572 406.065V399.63C463.572 398.59 463.792 397.675 464.232 396.885C464.672 396.085 465.277 395.465 466.047 395.025C466.817 394.575 467.712 394.35 468.732 394.35C470.262 394.35 471.497 394.835 472.437 395.805C473.377 396.775 473.847 398.05 473.847 399.63V403.185H465.312V401.085H471.672V399.555C471.672 398.645 471.407 397.915 470.877 397.365C470.357 396.805 469.642 396.525 468.732 396.525C467.822 396.525 467.097 396.805 466.557 397.365C466.017 397.915 465.747 398.645 465.747 399.555V406.14C465.747 407.05 466.017 407.785 466.557 408.345C467.097 408.905 467.822 409.185 468.732 409.185C469.642 409.185 470.357 408.905 470.877 408.345C471.407 407.785 471.672 407.05 471.672 406.14V405.765H473.847V406.065C473.847 407.645 473.377 408.925 472.437 409.905C471.497 410.875 470.262 411.36 468.732 411.36ZM481.878 411.36C480.328 411.36 479.083 410.915 478.143 410.025C477.213 409.125 476.748 407.94 476.748 406.47V405.945H478.923V406.56C478.923 407.35 479.188 407.985 479.718 408.465C480.258 408.945 480.968 409.185 481.848 409.185C482.698 409.185 483.373 408.945 483.873 408.465C484.373 407.985 484.623 407.29 484.623 406.38C484.623 405.79 484.508 405.34 484.278 405.03C484.058 404.71 483.738 404.47 483.318 404.31C482.898 404.15 482.388 404.01 481.788 403.89C480.798 403.68 479.923 403.45 479.163 403.2C478.403 402.94 477.808 402.53 477.378 401.97C476.958 401.41 476.748 400.575 476.748 399.465C476.748 397.805 477.203 396.54 478.113 395.67C479.033 394.79 480.238 394.35 481.728 394.35C483.278 394.35 484.508 394.8 485.418 395.7C486.338 396.59 486.798 397.765 486.798 399.225V399.735H484.623V399.15C484.623 398.35 484.363 397.715 483.843 397.245C483.333 396.765 482.638 396.525 481.758 396.525C480.898 396.525 480.208 396.77 479.688 397.26C479.178 397.74 478.923 398.435 478.923 399.345C478.923 399.935 479.033 400.39 479.253 400.71C479.483 401.02 479.813 401.25 480.243 401.4C480.673 401.55 481.188 401.69 481.788 401.82C482.768 402.02 483.633 402.25 484.383 402.51C485.133 402.77 485.723 403.185 486.153 403.755C486.583 404.325 486.798 405.17 486.798 406.29C486.798 407.92 486.348 409.175 485.448 410.055C484.558 410.925 483.368 411.36 481.878 411.36ZM491.098 411V407.28H493.348V411H491.098Z" fill="#464646"/>
</svg>
