<svg width="1512" height="982" viewBox="0 0 1512 982" fill="none" xmlns="http://www.w3.org/2000/svg">
<rect width="1512" height="982" fill="#23272D"/>
<rect width="33.5437" height="33.5437" rx="6" transform="matrix(1 0 0 -1 231 569.853)" fill="#2E333A"/>
<rect width="33.5437" height="33.5437" rx="6" transform="matrix(1 0 0 -1 271.63 569.853)" fill="#2E333A"/>
<rect width="33.5437" height="33.5437" rx="6" transform="matrix(1 0 0 -1 271.63 528.749)" fill="#1F432B"/>
<rect width="33.5437" height="33.5437" rx="6" transform="matrix(1 0 0 -1 231 528.749)" fill="#52A44E"/>
<rect width="33.5437" height="33.5437" rx="6" transform="matrix(1 0 0 -1 231 487.647)" fill="#2E333A"/>
<rect width="33.5437" height="33.5437" rx="6" transform="matrix(1 0 0 -1 271.63 487.647)" fill="#1F432B"/>
<rect width="33.5437" height="33.5437" rx="6" transform="matrix(1 0 0 -1 271.63 446.544)" fill="#1F432B"/>
<rect width="33.5437" height="33.5437" rx="6" transform="matrix(1 0 0 -1 231 446.544)" fill="#2E333A"/>
<rect width="33.5437" height="33.5437" rx="6" transform="matrix(1 0 0 -1 312.261 569.853)" fill="#2E333A"/>
<rect width="33.5437" height="33.5437" rx="6" transform="matrix(1 0 0 -1 352.891 569.853)" fill="#2E333A"/>
<rect width="33.5437" height="33.5437" rx="6" transform="matrix(1 0 0 -1 352.891 528.749)" fill="#2E6B38"/>
<rect width="33.5437" height="33.5437" rx="6" transform="matrix(1 0 0 -1 312.261 528.749)" fill="#52A44E"/>
<rect width="33.5437" height="33.5437" rx="6" transform="matrix(1 0 0 -1 312.261 487.647)" fill="#1F432B"/>
<rect width="33.5437" height="33.5437" rx="6" transform="matrix(1 0 0 -1 352.891 487.647)" fill="#2E6B38"/>
<rect width="33.5437" height="33.5437" rx="6" transform="matrix(1 0 0 -1 352.891 446.544)" fill="#2E6B38"/>
<rect width="33.5437" height="33.5437" rx="6" transform="matrix(1 0 0 -1 312.261 446.544)" fill="#2E6B38"/>
<rect width="33.5437" height="33.5437" rx="6" transform="matrix(1 0 0 -1 393.522 569.853)" fill="#6CD064"/>
<rect width="33.5437" height="33.5437" rx="6" transform="matrix(1 0 0 -1 434.152 569.853)" fill="#6CD064"/>
<rect width="33.5437" height="33.5437" rx="6" transform="matrix(1 0 0 -1 434.152 528.749)" fill="#2E333A"/>
<rect width="33.5437" height="33.5437" rx="6" transform="matrix(1 0 0 -1 393.522 528.749)" fill="#2E333A"/>
<rect width="33.5437" height="33.5437" rx="6" transform="matrix(1 0 0 -1 393.522 487.647)" fill="#2E333A"/>
<rect width="33.5437" height="33.5437" rx="6" transform="matrix(1 0 0 -1 434.152 487.647)" fill="#1F432B"/>
<rect width="33.5437" height="33.5437" rx="6" transform="matrix(1 0 0 -1 434.152 446.544)" fill="#52A44E"/>
<rect width="33.5437" height="33.5437" rx="6" transform="matrix(1 0 0 -1 393.522 446.544)" fill="#2E6B38"/>
<rect width="33.5437" height="33.5437" rx="6" transform="matrix(1 0 0 -1 474.783 569.853)" fill="#1F432B"/>
<rect width="33.5437" height="33.5437" rx="6" transform="matrix(1 0 0 -1 515.413 569.853)" fill="#52A44E"/>
<rect width="33.5437" height="33.5437" rx="6" transform="matrix(1 0 0 -1 515.413 528.749)" fill="#52A44E"/>
<rect width="33.5437" height="33.5437" rx="6" transform="matrix(1 0 0 -1 474.783 528.749)" fill="#0E4429"/>
<rect width="33.5437" height="33.5437" rx="6" transform="matrix(1 0 0 -1 474.783 487.647)" fill="#2E333A"/>
<rect width="33.5437" height="33.5437" rx="6" transform="matrix(1 0 0 -1 515.413 487.647)" fill="#2E333A"/>
<rect width="33.5437" height="33.5437" rx="6" transform="matrix(1 0 0 -1 515.413 446.544)" fill="#1F432B"/>
<rect width="33.5437" height="33.5437" rx="6" transform="matrix(1 0 0 -1 474.783 446.544)" fill="#52A44E"/>
<rect width="33.5437" height="33.5437" rx="6" transform="matrix(1 0 0 -1 556.043 569.853)" fill="#2E333A"/>
<rect width="33.5437" height="33.5437" rx="6" transform="matrix(1 0 0 -1 596.674 569.853)" fill="#2E333A"/>
<rect width="33.5437" height="33.5437" rx="6" transform="matrix(1 0 0 -1 596.674 528.749)" fill="#2E333A"/>
<rect width="33.5437" height="33.5437" rx="6" transform="matrix(1 0 0 -1 556.043 528.749)" fill="#2E6B38"/>
<rect width="33.5437" height="33.5437" rx="6" transform="matrix(1 0 0 -1 556.043 487.647)" fill="#2E6B38"/>
<rect width="33.5437" height="33.5437" rx="6" transform="matrix(1 0 0 -1 596.674 487.647)" fill="#2E333A"/>
<rect width="33.5437" height="33.5437" rx="6" transform="matrix(1 0 0 -1 596.674 446.544)" fill="#52A44E"/>
<rect width="33.5437" height="33.5437" rx="6" transform="matrix(1 0 0 -1 556.043 446.544)" fill="#52A44E"/>
<rect width="33.5437" height="33.5437" rx="6" transform="matrix(1 0 0 -1 637.304 569.853)" fill="#2E6B38"/>
<rect width="33.5437" height="33.5437" rx="6" transform="matrix(1 0 0 -1 677.935 569.853)" fill="#2E333A"/>
<rect width="33.5437" height="33.5437" rx="6" transform="matrix(1 0 0 -1 677.935 528.749)" fill="#6CD064"/>
<rect width="33.5437" height="33.5437" rx="6" transform="matrix(1 0 0 -1 637.304 528.749)" fill="#2E333A"/>
<rect width="33.5437" height="33.5437" rx="6" transform="matrix(1 0 0 -1 637.304 487.647)" fill="#52A44E"/>
<rect width="33.5437" height="33.5437" rx="6" transform="matrix(1 0 0 -1 677.935 487.647)" fill="#1F432B"/>
<rect width="33.5437" height="33.5437" rx="6" transform="matrix(1 0 0 -1 677.935 446.544)" fill="#2E6B38"/>
<rect width="33.5437" height="33.5437" rx="6" transform="matrix(1 0 0 -1 637.304 446.544)" fill="#52A44E"/>
<rect width="33.5437" height="33.5437" rx="6" transform="matrix(1 0 0 -1 718.565 569.853)" fill="#1F432B"/>
<rect width="33.5437" height="33.5437" rx="6" transform="matrix(1 0 0 -1 759.195 569.853)" fill="#2E333A"/>
<rect width="33.5437" height="33.5437" rx="6" transform="matrix(1 0 0 -1 759.195 528.749)" fill="#2E333A"/>
<rect width="33.5437" height="33.5437" rx="6" transform="matrix(1 0 0 -1 718.565 528.749)" fill="#1F432B"/>
<rect width="33.5437" height="33.5437" rx="6" transform="matrix(1 0 0 -1 718.565 487.647)" fill="#2E333A"/>
<rect width="33.5437" height="33.5437" rx="6" transform="matrix(1 0 0 -1 759.195 487.647)" fill="#52A44E"/>
<rect width="33.5437" height="33.5437" rx="6" transform="matrix(1 0 0 -1 759.195 446.544)" fill="#2E333A"/>
<rect width="33.5437" height="33.5437" rx="6" transform="matrix(1 0 0 -1 718.565 446.544)" fill="#2E333A"/>
<rect width="33.5437" height="33.5437" rx="6" transform="matrix(1 0 0 -1 799.826 569.853)" fill="#1F432B"/>
<rect width="33.5437" height="33.5437" rx="6" transform="matrix(1 0 0 -1 840.456 569.853)" fill="#2E6B38"/>
<rect width="33.5437" height="33.5437" rx="6" transform="matrix(1 0 0 -1 840.456 528.749)" fill="#2E6B38"/>
<rect width="33.5437" height="33.5437" rx="6" transform="matrix(1 0 0 -1 799.826 528.749)" fill="#1F432B"/>
<rect width="33.5437" height="33.5437" rx="6" transform="matrix(1 0 0 -1 799.826 487.647)" fill="#2E333A"/>
<rect width="33.5437" height="33.5437" rx="6" transform="matrix(1 0 0 -1 840.456 487.647)" fill="#2E6B38"/>
<rect width="33.5437" height="33.5437" rx="6" transform="matrix(1 0 0 -1 840.456 446.544)" fill="#1F432B"/>
<rect width="33.5437" height="33.5437" rx="6" transform="matrix(1 0 0 -1 799.826 446.544)" fill="#2E333A"/>
<rect width="33.5437" height="33.5437" rx="6" transform="matrix(1 0 0 -1 881 569.853)" fill="#2E333A"/>
<rect width="33.5437" height="33.5437" rx="6" transform="matrix(1 0 0 -1 921.63 569.853)" fill="#52A44E"/>
<rect width="33.5437" height="33.5437" rx="6" transform="matrix(1 0 0 -1 921.63 528.749)" fill="#1F432B"/>
<rect width="33.5437" height="33.5437" rx="6" transform="matrix(1 0 0 -1 881 528.749)" fill="#2E333A"/>
<rect width="33.5437" height="33.5437" rx="6" transform="matrix(1 0 0 -1 881 487.647)" fill="#2E6B38"/>
<rect width="33.5437" height="33.5437" rx="6" transform="matrix(1 0 0 -1 921.63 487.647)" fill="#1F432B"/>
<rect width="33.5437" height="33.5437" rx="6" transform="matrix(1 0 0 -1 921.63 446.544)" fill="#2E6B38"/>
<rect width="33.5437" height="33.5437" rx="6" transform="matrix(1 0 0 -1 881 446.544)" fill="#1F432B"/>
<rect width="33.5437" height="33.5437" rx="6" transform="matrix(1 0 0 -1 962.261 569.853)" fill="#2E333A"/>
<rect width="33.5437" height="33.5437" rx="6" transform="matrix(1 0 0 -1 1002.89 569.853)" fill="#2E333A"/>
<rect width="33.5437" height="33.5437" rx="6" transform="matrix(1 0 0 -1 1002.89 528.749)" fill="#2E333A"/>
<rect width="33.5437" height="33.5437" rx="6" transform="matrix(1 0 0 -1 962.261 528.749)" fill="#52A44E"/>
<rect width="33.5437" height="33.5437" rx="6" transform="matrix(1 0 0 -1 962.261 487.647)" fill="#2E6B38"/>
<rect width="33.5437" height="33.5437" rx="6" transform="matrix(1 0 0 -1 1002.89 487.647)" fill="#2E6B38"/>
<rect width="33.5437" height="33.5437" rx="6" transform="matrix(1 0 0 -1 1002.89 446.544)" fill="#2E333A"/>
<rect width="33.5437" height="33.5437" rx="6" transform="matrix(1 0 0 -1 962.261 446.544)" fill="#2E6B38"/>
<rect width="33.5437" height="33.5437" rx="6" transform="matrix(1 0 0 -1 1043.52 569.853)" fill="#6CD064"/>
<rect width="33.5437" height="33.5437" rx="6" transform="matrix(1 0 0 -1 1084.15 569.853)" fill="#6CD064"/>
<rect width="33.5437" height="33.5437" rx="6" transform="matrix(1 0 0 -1 1084.15 528.749)" fill="#2E333A"/>
<rect width="33.5437" height="33.5437" rx="6" transform="matrix(1 0 0 -1 1043.52 528.749)" fill="#2E333A"/>
<rect width="33.5437" height="33.5437" rx="6" transform="matrix(1 0 0 -1 1043.52 487.647)" fill="#2E333A"/>
<rect width="33.5437" height="33.5437" rx="6" transform="matrix(1 0 0 -1 1084.15 487.647)" fill="#1F432B"/>
<rect width="33.5437" height="33.5437" rx="6" transform="matrix(1 0 0 -1 1084.15 446.544)" fill="#2E6B38"/>
<rect width="33.5437" height="33.5437" rx="6" transform="matrix(1 0 0 -1 1043.52 446.544)" fill="#2E333A"/>
<rect width="33.5437" height="33.5437" rx="6" transform="matrix(1 0 0 -1 1124.78 569.853)" fill="#1F432B"/>
<rect width="33.5437" height="33.5437" rx="6" transform="matrix(1 0 0 -1 1165.41 569.853)" fill="#52A44E"/>
<rect width="33.5437" height="33.5437" rx="6" transform="matrix(1 0 0 -1 1165.41 528.749)" fill="#52A44E"/>
<rect width="33.5437" height="33.5437" rx="6" transform="matrix(1 0 0 -1 1124.78 528.749)" fill="#0E4429"/>
<rect width="33.5437" height="33.5437" rx="6" transform="matrix(1 0 0 -1 1124.78 487.647)" fill="#2E6B38"/>
<rect width="33.5437" height="33.5437" rx="6" transform="matrix(1 0 0 -1 1165.41 487.647)" fill="#2E333A"/>
<rect width="33.5437" height="33.5437" rx="6" transform="matrix(1 0 0 -1 1165.41 446.544)" fill="#1F432B"/>
<rect width="33.5437" height="33.5437" rx="6" transform="matrix(1 0 0 -1 1124.78 446.544)" fill="#2E6B38"/>
<rect width="33.5437" height="33.5437" rx="6" transform="matrix(1 0 0 -1 1206.04 569.853)" fill="#2E333A"/>
<rect width="33.5437" height="33.5437" rx="6" transform="matrix(1 0 0 -1 1246.67 569.853)" fill="#1F432B"/>
<rect width="33.5437" height="33.5437" rx="6" transform="matrix(1 0 0 -1 1246.67 528.749)" fill="#2E6B38"/>
<rect width="33.5437" height="33.5437" rx="6" transform="matrix(1 0 0 -1 1206.04 528.749)" fill="#2E6B38"/>
<rect width="33.5437" height="33.5437" rx="6" transform="matrix(1 0 0 -1 1206.04 487.647)" fill="#2E6B38"/>
<rect width="33.5437" height="33.5437" rx="6" transform="matrix(1 0 0 -1 1246.67 487.647)" fill="#2E6B38"/>
<rect width="33.5437" height="33.5437" rx="6" transform="matrix(1 0 0 -1 1246.67 446.544)" fill="#2E6B38"/>
<rect width="33.5437" height="33.5437" rx="6" transform="matrix(1 0 0 -1 1206.04 446.544)" fill="#1F432B"/>
</svg>
