<svg viewBox="0 0 1512 982" fill="none" xmlns="http://www.w3.org/2000/svg"><path id="projects-title" d="M247.88 199.8h34.4l7.912 7.912v19.35l-7.998 7.998h-27.778V260h-6.536v-60.2zm31.562 29.584 4.3-4.214v-15.48l-4.3-4.214h-25.026v23.908h25.026zm20.666-12.212h6.192v7.654l7.654-7.654h11.094v5.676h-9.46l-9.116 9.116V260h-6.364v-42.828zm30.046 34.916v-27.004l7.912-7.912h22.016l7.912 7.912v27.004L360.082 260h-22.016l-7.912-7.912zm27.176 2.236 4.3-4.214v-23.048l-4.3-4.214h-16.512l-4.3 4.214v23.048l4.3 4.214h16.512zm23.17-46.956v-3.784l2.58-2.58h3.785l2.58 2.58v3.784l-2.58 2.58h-3.784l-2.58-2.58zm-11.61 65.704h8.6l4.3-4.214v-51.686h6.365v53.75l-7.826 7.826h-11.44v-5.676zm32.147-20.984v-27.004l7.912-7.912h21.585l7.998 7.912v15.394H407.4v9.632l4.3 4.214h16.083l4.3-4.214v-3.268h6.364v5.246L430.535 260H408.95l-7.913-7.912zm31.132-17.114v-7.912l-4.3-4.214H411.7l-4.3 4.214v7.912h24.77zm17.074 17.114v-27.004l7.912-7.912h20.64l7.912 7.912v5.246h-6.364v-3.268l-4.3-4.214h-15.136l-4.3 4.214v23.048l4.3 4.214h15.136l4.3-4.214v-3.268h6.364v5.246L477.796 260h-20.64l-7.912-7.912zm50.67 0v-29.326h-7.74v-5.59h7.912V203.24h6.192v13.932h13.416v5.59h-13.416v27.348l4.3 4.3h9.116V260h-11.868l-7.912-7.912zm27.07.86v-5.332h6.364v3.526l3.44 3.354h15.824l3.44-3.354v-6.622l-3.44-3.44h-18.49l-6.794-6.794v-10.062l7.052-7.052h20.124l7.052 7.052v5.332h-6.364v-3.526l-3.44-3.354h-14.62l-3.44 3.354v6.278l3.44 3.44h18.232l7.052 7.052v10.148L555.364 260h-21.328l-7.052-7.052z" fill="black"/></svg>