<svg viewBox="0 0 1512 1200" fill="none" xmlns="http://www.w3.org/2000/svg">
<rect width="1512" height="1302" fill="white"/>
<path d="M285.16 175.248H259.744V198H253.696V147.744H259.744V169.92H285.16V147.744H291.208V198H285.16V175.248ZM317.994 198.864C315.45 198.864 313.146 198.408 311.082 197.496C309.066 196.584 307.314 195.288 305.826 193.608C304.386 191.88 303.258 189.84 302.442 187.488C301.674 185.088 301.29 182.4 301.29 179.424C301.29 176.496 301.674 173.832 302.442 171.432C303.258 169.032 304.386 166.992 305.826 165.312C307.314 163.584 309.066 162.264 311.082 161.352C313.146 160.44 315.45 159.984 317.994 159.984C320.49 159.984 322.722 160.44 324.69 161.352C326.658 162.264 328.338 163.536 329.73 165.168C331.122 166.752 332.178 168.648 332.898 170.856C333.666 173.064 334.05 175.488 334.05 178.128V180.864H307.338V182.592C307.338 184.176 307.578 185.664 308.058 187.056C308.586 188.4 309.306 189.576 310.218 190.584C311.178 191.592 312.33 192.384 313.674 192.96C315.066 193.536 316.626 193.824 318.354 193.824C320.706 193.824 322.746 193.272 324.474 192.168C326.25 191.064 327.618 189.48 328.578 187.416L332.682 190.368C331.482 192.912 329.61 194.976 327.066 196.56C324.522 198.096 321.498 198.864 317.994 198.864ZM317.994 164.808C316.41 164.808 314.97 165.096 313.674 165.672C312.378 166.2 311.25 166.968 310.29 167.976C309.378 168.984 308.658 170.184 308.13 171.576C307.602 172.92 307.338 174.408 307.338 176.04V176.544H327.858V175.752C327.858 172.44 326.946 169.8 325.122 167.832C323.346 165.816 320.97 164.808 317.994 164.808ZM343.542 198V160.848H349.302V167.688H349.662C350.334 165.912 351.534 164.328 353.262 162.936C354.99 161.544 357.366 160.848 360.39 160.848H362.622V166.608H359.238C356.118 166.608 353.67 167.208 351.894 168.408C350.166 169.56 349.302 171.024 349.302 172.8V198H343.542ZM383.596 198.864C381.052 198.864 378.748 198.408 376.684 197.496C374.668 196.584 372.916 195.288 371.428 193.608C369.988 191.88 368.86 189.84 368.044 187.488C367.276 185.088 366.892 182.4 366.892 179.424C366.892 176.496 367.276 173.832 368.044 171.432C368.86 169.032 369.988 166.992 371.428 165.312C372.916 163.584 374.668 162.264 376.684 161.352C378.748 160.44 381.052 159.984 383.596 159.984C386.092 159.984 388.324 160.44 390.292 161.352C392.26 162.264 393.94 163.536 395.332 165.168C396.724 166.752 397.78 168.648 398.5 170.856C399.268 173.064 399.652 175.488 399.652 178.128V180.864H372.94V182.592C372.94 184.176 373.18 185.664 373.66 187.056C374.188 188.4 374.908 189.576 375.82 190.584C376.78 191.592 377.932 192.384 379.276 192.96C380.668 193.536 382.228 193.824 383.956 193.824C386.308 193.824 388.348 193.272 390.076 192.168C391.852 191.064 393.22 189.48 394.18 187.416L398.284 190.368C397.084 192.912 395.212 194.976 392.668 196.56C390.124 198.096 387.1 198.864 383.596 198.864ZM383.596 164.808C382.012 164.808 380.572 165.096 379.276 165.672C377.98 166.2 376.852 166.968 375.892 167.976C374.98 168.984 374.26 170.184 373.732 171.576C373.204 172.92 372.94 174.408 372.94 176.04V176.544H393.46V175.752C393.46 172.44 392.548 169.8 390.724 167.832C388.948 165.816 386.572 164.808 383.596 164.808ZM411.347 144C412.883 144 413.987 144.408 414.659 145.224C415.379 145.992 415.739 147 415.739 148.248V149.256C415.739 151.224 415.163 153.408 414.011 155.808C412.859 158.16 411.251 160.224 409.187 162H404.363C405.803 160.464 406.955 159.024 407.819 157.68C408.731 156.288 409.379 154.752 409.763 153.072C408.803 152.832 408.083 152.376 407.603 151.704C407.171 151.032 406.955 150.216 406.955 149.256V148.248C406.955 147 407.291 145.992 407.963 145.224C408.683 144.408 409.811 144 411.347 144ZM434.577 198.864C431.121 198.864 428.217 198.216 425.865 196.92C423.561 195.576 421.569 193.8 419.889 191.592L423.993 188.28C425.433 190.104 427.041 191.52 428.817 192.528C430.593 193.488 432.657 193.968 435.009 193.968C437.457 193.968 439.353 193.44 440.697 192.384C442.089 191.328 442.785 189.84 442.785 187.92C442.785 186.48 442.305 185.256 441.345 184.248C440.433 183.192 438.753 182.472 436.305 182.088L433.353 181.656C431.625 181.416 430.041 181.056 428.601 180.576C427.161 180.048 425.889 179.376 424.785 178.56C423.729 177.696 422.889 176.64 422.265 175.392C421.689 174.144 421.401 172.656 421.401 170.928C421.401 169.104 421.737 167.52 422.409 166.176C423.081 164.784 423.993 163.632 425.145 162.72C426.345 161.808 427.761 161.136 429.393 160.704C431.025 160.224 432.777 159.984 434.649 159.984C437.673 159.984 440.193 160.512 442.209 161.568C444.273 162.624 446.073 164.088 447.609 165.96L443.793 169.416C442.977 168.264 441.777 167.232 440.193 166.32C438.609 165.36 436.617 164.88 434.217 164.88C431.817 164.88 429.993 165.408 428.745 166.464C427.545 167.472 426.945 168.864 426.945 170.64C426.945 172.464 427.545 173.784 428.745 174.6C429.993 175.416 431.769 176.016 434.073 176.4L436.953 176.832C441.081 177.456 444.009 178.656 445.737 180.432C447.465 182.16 448.329 184.44 448.329 187.272C448.329 190.872 447.105 193.704 444.657 195.768C442.209 197.832 438.849 198.864 434.577 198.864ZM475.518 144.72H481.278V166.896H481.566C482.478 164.784 483.75 163.104 485.382 161.856C487.062 160.608 489.294 159.984 492.078 159.984C495.918 159.984 498.942 161.232 501.15 163.728C503.406 166.176 504.534 169.656 504.534 174.168V198H498.774V175.176C498.774 168.504 495.966 165.168 490.35 165.168C489.198 165.168 488.07 165.312 486.966 165.6C485.91 165.888 484.95 166.32 484.086 166.896C483.222 167.472 482.526 168.216 481.998 169.128C481.518 169.992 481.278 171.024 481.278 172.224V198H475.518V144.72ZM530.48 198.864C527.984 198.864 525.704 198.408 523.64 197.496C521.576 196.584 519.8 195.288 518.312 193.608C516.872 191.88 515.744 189.84 514.928 187.488C514.112 185.088 513.704 182.4 513.704 179.424C513.704 176.496 514.112 173.832 514.928 171.432C515.744 169.032 516.872 166.992 518.312 165.312C519.8 163.584 521.576 162.264 523.64 161.352C525.704 160.44 527.984 159.984 530.48 159.984C532.976 159.984 535.232 160.44 537.248 161.352C539.312 162.264 541.088 163.584 542.576 165.312C544.064 166.992 545.216 169.032 546.032 171.432C546.848 173.832 547.256 176.496 547.256 179.424C547.256 182.4 546.848 185.088 546.032 187.488C545.216 189.84 544.064 191.88 542.576 193.608C541.088 195.288 539.312 196.584 537.248 197.496C535.232 198.408 532.976 198.864 530.48 198.864ZM530.48 193.752C533.6 193.752 536.144 192.792 538.112 190.872C540.08 188.952 541.064 186.024 541.064 182.088V176.76C541.064 172.824 540.08 169.896 538.112 167.976C536.144 166.056 533.6 165.096 530.48 165.096C527.36 165.096 524.816 166.056 522.848 167.976C520.88 169.896 519.896 172.824 519.896 176.76V182.088C519.896 186.024 520.88 188.952 522.848 190.872C524.816 192.792 527.36 193.752 530.48 193.752ZM552.49 160.848H558.106L562.066 176.904L566.026 193.176H566.17L570.706 176.904L575.386 160.848H580.498L585.322 176.904L589.93 193.176H590.074L593.89 176.904L597.922 160.848H603.322L593.458 198H586.33L581.146 180.144L577.906 168.84H577.762L574.594 180.144L569.41 198H562.426L552.49 160.848ZM626.859 198V192.96H633.915V152.784H626.859V147.744H647.019V152.784H639.963V192.96H647.019V198H626.859ZM688.327 198.864C685.735 198.864 683.407 198.408 681.343 197.496C679.279 196.584 677.527 195.288 676.087 193.608C674.695 191.928 673.615 189.888 672.847 187.488C672.127 185.088 671.767 182.4 671.767 179.424C671.767 176.448 672.127 173.76 672.847 171.36C673.615 168.96 674.695 166.92 676.087 165.24C677.527 163.56 679.279 162.264 681.343 161.352C683.407 160.44 685.735 159.984 688.327 159.984C692.023 159.984 694.975 160.8 697.183 162.432C699.439 164.016 701.119 166.104 702.223 168.696L697.399 171.144C696.727 169.224 695.623 167.736 694.087 166.68C692.551 165.624 690.631 165.096 688.327 165.096C686.599 165.096 685.087 165.384 683.791 165.96C682.495 166.488 681.415 167.256 680.551 168.264C679.687 169.224 679.039 170.4 678.607 171.792C678.175 173.136 677.959 174.624 677.959 176.256V182.592C677.959 185.856 678.823 188.544 680.551 190.656C682.327 192.72 684.919 193.752 688.327 193.752C692.983 193.752 696.343 191.592 698.407 187.272L702.583 190.08C701.383 192.768 699.583 194.904 697.183 196.488C694.831 198.072 691.879 198.864 688.327 198.864ZM737.714 198C735.554 198 733.994 197.424 733.034 196.272C732.122 195.12 731.546 193.68 731.306 191.952H730.946C730.13 194.256 728.786 195.984 726.914 197.136C725.042 198.288 722.81 198.864 720.218 198.864C716.282 198.864 713.21 197.856 711.002 195.84C708.842 193.824 707.762 191.088 707.762 187.632C707.762 184.128 709.034 181.44 711.578 179.568C714.17 177.696 718.178 176.76 723.602 176.76H730.946V173.088C730.946 170.448 730.226 168.432 728.786 167.04C727.346 165.648 725.138 164.952 722.162 164.952C719.906 164.952 718.01 165.456 716.474 166.464C714.986 167.472 713.738 168.816 712.73 170.496L709.274 167.256C710.282 165.24 711.89 163.536 714.098 162.144C716.306 160.704 719.09 159.984 722.45 159.984C726.962 159.984 730.466 161.088 732.962 163.296C735.458 165.504 736.706 168.576 736.706 172.512V192.96H740.954V198H737.714ZM721.154 193.968C722.594 193.968 723.914 193.8 725.114 193.464C726.314 193.128 727.346 192.648 728.21 192.024C729.074 191.4 729.746 190.68 730.226 189.864C730.706 189.048 730.946 188.16 730.946 187.2V181.08H723.314C720.002 181.08 717.578 181.56 716.042 182.52C714.554 183.48 713.81 184.872 713.81 186.696V188.208C713.81 190.032 714.458 191.448 715.754 192.456C717.098 193.464 718.898 193.968 721.154 193.968ZM749.175 198V160.848H754.935V166.896H755.223C756.135 164.784 757.407 163.104 759.039 161.856C760.719 160.608 762.951 159.984 765.735 159.984C769.575 159.984 772.599 161.232 774.807 163.728C777.063 166.176 778.191 169.656 778.191 174.168V198H772.431V175.176C772.431 168.504 769.623 165.168 764.007 165.168C762.855 165.168 761.727 165.312 760.623 165.6C759.567 165.888 758.607 166.32 757.743 166.896C756.879 167.472 756.183 168.216 755.655 169.128C755.175 169.992 754.935 171.024 754.935 172.224V198H749.175ZM807.112 144.72H812.872V166.896H813.16C814.12 164.544 815.512 162.816 817.336 161.712C819.208 160.56 821.44 159.984 824.032 159.984C826.336 159.984 828.424 160.44 830.296 161.352C832.168 162.264 833.752 163.56 835.048 165.24C836.392 166.92 837.4 168.96 838.072 171.36C838.792 173.76 839.152 176.448 839.152 179.424C839.152 182.4 838.792 185.088 838.072 187.488C837.4 189.888 836.392 191.928 835.048 193.608C833.752 195.288 832.168 196.584 830.296 197.496C828.424 198.408 826.336 198.864 824.032 198.864C818.992 198.864 815.368 196.56 813.16 191.952H812.872V198H807.112V144.72ZM822.448 193.68C825.712 193.68 828.28 192.672 830.152 190.656C832.024 188.592 832.96 185.904 832.96 182.592V176.256C832.96 172.944 832.024 170.28 830.152 168.264C828.28 166.2 825.712 165.168 822.448 165.168C821.152 165.168 819.904 165.36 818.704 165.744C817.552 166.08 816.544 166.56 815.68 167.184C814.816 167.808 814.12 168.576 813.592 169.488C813.112 170.352 812.872 171.288 812.872 172.296V186.12C812.872 187.32 813.112 188.4 813.592 189.36C814.12 190.272 814.816 191.064 815.68 191.736C816.544 192.36 817.552 192.84 818.704 193.176C819.904 193.512 821.152 193.68 822.448 193.68ZM862.846 198.864C860.302 198.864 857.998 198.408 855.934 197.496C853.918 196.584 852.166 195.288 850.678 193.608C849.238 191.88 848.11 189.84 847.294 187.488C846.526 185.088 846.142 182.4 846.142 179.424C846.142 176.496 846.526 173.832 847.294 171.432C848.11 169.032 849.238 166.992 850.678 165.312C852.166 163.584 853.918 162.264 855.934 161.352C857.998 160.44 860.302 159.984 862.846 159.984C865.342 159.984 867.574 160.44 869.542 161.352C871.51 162.264 873.19 163.536 874.582 165.168C875.974 166.752 877.03 168.648 877.75 170.856C878.518 173.064 878.902 175.488 878.902 178.128V180.864H852.19V182.592C852.19 184.176 852.43 185.664 852.91 187.056C853.438 188.4 854.158 189.576 855.07 190.584C856.03 191.592 857.182 192.384 858.526 192.96C859.918 193.536 861.478 193.824 863.206 193.824C865.558 193.824 867.598 193.272 869.326 192.168C871.102 191.064 872.47 189.48 873.43 187.416L877.534 190.368C876.334 192.912 874.462 194.976 871.918 196.56C869.374 198.096 866.35 198.864 862.846 198.864ZM862.846 164.808C861.262 164.808 859.822 165.096 858.526 165.672C857.23 166.2 856.102 166.968 855.142 167.976C854.23 168.984 853.51 170.184 852.982 171.576C852.454 172.92 852.19 174.408 852.19 176.04V176.544H872.71V175.752C872.71 172.44 871.798 169.8 869.974 167.832C868.198 165.816 865.822 164.808 862.846 164.808ZM919.449 198.864C916.953 198.864 914.673 198.408 912.609 197.496C910.545 196.584 908.769 195.288 907.281 193.608C905.841 191.88 904.713 189.84 903.897 187.488C903.081 185.088 902.673 182.4 902.673 179.424C902.673 176.496 903.081 173.832 903.897 171.432C904.713 169.032 905.841 166.992 907.281 165.312C908.769 163.584 910.545 162.264 912.609 161.352C914.673 160.44 916.953 159.984 919.449 159.984C921.945 159.984 924.201 160.44 926.217 161.352C928.281 162.264 930.057 163.584 931.545 165.312C933.033 166.992 934.185 169.032 935.001 171.432C935.817 173.832 936.225 176.496 936.225 179.424C936.225 182.4 935.817 185.088 935.001 187.488C934.185 189.84 933.033 191.88 931.545 193.608C930.057 195.288 928.281 196.584 926.217 197.496C924.201 198.408 921.945 198.864 919.449 198.864ZM919.449 193.752C922.569 193.752 925.113 192.792 927.081 190.872C929.049 188.952 930.033 186.024 930.033 182.088V176.76C930.033 172.824 929.049 169.896 927.081 167.976C925.113 166.056 922.569 165.096 919.449 165.096C916.329 165.096 913.785 166.056 911.817 167.976C909.849 169.896 908.865 172.824 908.865 176.76V182.088C908.865 186.024 909.849 188.952 911.817 190.872C913.785 192.792 916.329 193.752 919.449 193.752ZM947.292 165.888H941.244V160.848H947.292V153.36C947.292 150.768 947.964 148.68 949.308 147.096C950.652 145.512 952.692 144.72 955.428 144.72H961.044V149.76H953.052V160.848H961.044V165.888H953.052V198H947.292V165.888ZM996.796 198.864C993.34 198.864 990.436 198.216 988.084 196.92C985.78 195.576 983.788 193.8 982.108 191.592L986.212 188.28C987.652 190.104 989.26 191.52 991.036 192.528C992.812 193.488 994.876 193.968 997.228 193.968C999.676 193.968 1001.57 193.44 1002.92 192.384C1004.31 191.328 1005 189.84 1005 187.92C1005 186.48 1004.52 185.256 1003.56 184.248C1002.65 183.192 1000.97 182.472 998.524 182.088L995.572 181.656C993.844 181.416 992.26 181.056 990.82 180.576C989.38 180.048 988.108 179.376 987.004 178.56C985.948 177.696 985.108 176.64 984.484 175.392C983.908 174.144 983.62 172.656 983.62 170.928C983.62 169.104 983.956 167.52 984.628 166.176C985.3 164.784 986.212 163.632 987.364 162.72C988.564 161.808 989.98 161.136 991.612 160.704C993.244 160.224 994.996 159.984 996.868 159.984C999.892 159.984 1002.41 160.512 1004.43 161.568C1006.49 162.624 1008.29 164.088 1009.83 165.96L1006.01 169.416C1005.2 168.264 1004 167.232 1002.41 166.32C1000.83 165.36 998.836 164.88 996.436 164.88C994.036 164.88 992.212 165.408 990.964 166.464C989.764 167.472 989.164 168.864 989.164 170.64C989.164 172.464 989.764 173.784 990.964 174.6C992.212 175.416 993.988 176.016 996.292 176.4L999.172 176.832C1003.3 177.456 1006.23 178.656 1007.96 180.432C1009.68 182.16 1010.55 184.44 1010.55 187.272C1010.55 190.872 1009.32 193.704 1006.88 195.768C1004.43 197.832 1001.07 198.864 996.796 198.864ZM1034.69 198.864C1032.15 198.864 1029.84 198.408 1027.78 197.496C1025.76 196.584 1024.01 195.288 1022.52 193.608C1021.08 191.88 1019.95 189.84 1019.14 187.488C1018.37 185.088 1017.99 182.4 1017.99 179.424C1017.99 176.496 1018.37 173.832 1019.14 171.432C1019.95 169.032 1021.08 166.992 1022.52 165.312C1024.01 163.584 1025.76 162.264 1027.78 161.352C1029.84 160.44 1032.15 159.984 1034.69 159.984C1037.19 159.984 1039.42 160.44 1041.39 161.352C1043.35 162.264 1045.03 163.536 1046.43 165.168C1047.82 166.752 1048.87 168.648 1049.59 170.856C1050.36 173.064 1050.75 175.488 1050.75 178.128V180.864H1024.03V182.592C1024.03 184.176 1024.27 185.664 1024.75 187.056C1025.28 188.4 1026 189.576 1026.91 190.584C1027.87 191.592 1029.03 192.384 1030.37 192.96C1031.76 193.536 1033.32 193.824 1035.05 193.824C1037.4 193.824 1039.44 193.272 1041.17 192.168C1042.95 191.064 1044.31 189.48 1045.27 187.416L1049.38 190.368C1048.18 192.912 1046.31 194.976 1043.76 196.56C1041.22 198.096 1038.19 198.864 1034.69 198.864ZM1034.69 164.808C1033.11 164.808 1031.67 165.096 1030.37 165.672C1029.07 166.2 1027.95 166.968 1026.99 167.976C1026.07 168.984 1025.35 170.184 1024.83 171.576C1024.3 172.92 1024.03 174.408 1024.03 176.04V176.544H1044.55V175.752C1044.55 172.44 1043.64 169.8 1041.82 167.832C1040.04 165.816 1037.67 164.808 1034.69 164.808ZM1060.24 198V160.848H1066V167.688H1066.36C1067.03 165.912 1068.23 164.328 1069.96 162.936C1071.69 161.544 1074.06 160.848 1077.09 160.848H1079.32V166.608H1075.93C1072.81 166.608 1070.37 167.208 1068.59 168.408C1066.86 169.56 1066 171.024 1066 172.8V198H1060.24ZM1095.59 198L1082.55 160.848H1088.31L1094.79 179.28L1098.83 191.952H1099.19L1103.22 179.28L1109.84 160.848H1115.39L1102.28 198H1095.59ZM1125.7 152.136C1124.45 152.136 1123.54 151.848 1122.96 151.272C1122.43 150.648 1122.17 149.856 1122.17 148.896V147.96C1122.17 147 1122.43 146.232 1122.96 145.656C1123.54 145.032 1124.45 144.72 1125.7 144.72C1126.94 144.72 1127.83 145.032 1128.36 145.656C1128.94 146.232 1129.22 147 1129.22 147.96V148.896C1129.22 149.856 1128.94 150.648 1128.36 151.272C1127.83 151.848 1126.94 152.136 1125.7 152.136ZM1122.82 160.848H1128.58V198H1122.82V160.848ZM1154.64 198.864C1152.05 198.864 1149.72 198.408 1147.66 197.496C1145.59 196.584 1143.84 195.288 1142.4 193.608C1141.01 191.928 1139.93 189.888 1139.16 187.488C1138.44 185.088 1138.08 182.4 1138.08 179.424C1138.08 176.448 1138.44 173.76 1139.16 171.36C1139.93 168.96 1141.01 166.92 1142.4 165.24C1143.84 163.56 1145.59 162.264 1147.66 161.352C1149.72 160.44 1152.05 159.984 1154.64 159.984C1158.34 159.984 1161.29 160.8 1163.5 162.432C1165.75 164.016 1167.43 166.104 1168.54 168.696L1163.71 171.144C1163.04 169.224 1161.94 167.736 1160.4 166.68C1158.86 165.624 1156.94 165.096 1154.64 165.096C1152.91 165.096 1151.4 165.384 1150.1 165.96C1148.81 166.488 1147.73 167.256 1146.86 168.264C1146 169.224 1145.35 170.4 1144.92 171.792C1144.49 173.136 1144.27 174.624 1144.27 176.256V182.592C1144.27 185.856 1145.14 188.544 1146.86 190.656C1148.64 192.72 1151.23 193.752 1154.64 193.752C1159.3 193.752 1162.66 191.592 1164.72 187.272L1168.9 190.08C1167.7 192.768 1165.9 194.904 1163.5 196.488C1161.14 198.072 1158.19 198.864 1154.64 198.864ZM1190.57 198.864C1188.03 198.864 1185.72 198.408 1183.66 197.496C1181.64 196.584 1179.89 195.288 1178.4 193.608C1176.96 191.88 1175.84 189.84 1175.02 187.488C1174.25 185.088 1173.87 182.4 1173.87 179.424C1173.87 176.496 1174.25 173.832 1175.02 171.432C1175.84 169.032 1176.96 166.992 1178.4 165.312C1179.89 163.584 1181.64 162.264 1183.66 161.352C1185.72 160.44 1188.03 159.984 1190.57 159.984C1193.07 159.984 1195.3 160.44 1197.27 161.352C1199.24 162.264 1200.92 163.536 1202.31 165.168C1203.7 166.752 1204.76 168.648 1205.48 170.856C1206.24 173.064 1206.63 175.488 1206.63 178.128V180.864H1179.92V182.592C1179.92 184.176 1180.16 185.664 1180.64 187.056C1181.16 188.4 1181.88 189.576 1182.8 190.584C1183.76 191.592 1184.91 192.384 1186.25 192.96C1187.64 193.536 1189.2 193.824 1190.93 193.824C1193.28 193.824 1195.32 193.272 1197.05 192.168C1198.83 191.064 1200.2 189.48 1201.16 187.416L1205.26 190.368C1204.06 192.912 1202.19 194.976 1199.64 196.56C1197.1 198.096 1194.08 198.864 1190.57 198.864ZM1190.57 164.808C1188.99 164.808 1187.55 165.096 1186.25 165.672C1184.96 166.2 1183.83 166.968 1182.87 167.976C1181.96 168.984 1181.24 170.184 1180.71 171.576C1180.18 172.92 1179.92 174.408 1179.92 176.04V176.544H1200.44V175.752C1200.44 172.44 1199.52 169.8 1197.7 167.832C1195.92 165.816 1193.55 164.808 1190.57 164.808ZM1218.39 198.864C1216.85 198.864 1215.72 198.48 1215 197.712C1214.33 196.944 1213.99 195.936 1213.99 194.688V193.752C1213.99 192.504 1214.33 191.496 1215 190.728C1215.72 189.96 1216.85 189.576 1218.39 189.576C1219.92 189.576 1221.03 189.96 1221.7 190.728C1222.42 191.496 1222.78 192.504 1222.78 193.752V194.688C1222.78 195.936 1222.42 196.944 1221.7 197.712C1221.03 198.48 1219.92 198.864 1218.39 198.864ZM1238 198.864C1236.47 198.864 1235.34 198.48 1234.62 197.712C1233.95 196.944 1233.61 195.936 1233.61 194.688V193.752C1233.61 192.504 1233.95 191.496 1234.62 190.728C1235.34 189.96 1236.47 189.576 1238 189.576C1239.54 189.576 1240.64 189.96 1241.31 190.728C1242.03 191.496 1242.39 192.504 1242.39 193.752V194.688C1242.39 195.936 1242.03 196.944 1241.31 197.712C1240.64 198.48 1239.54 198.864 1238 198.864ZM1257.62 198.864C1256.08 198.864 1254.96 198.48 1254.24 197.712C1253.56 196.944 1253.23 195.936 1253.23 194.688V193.752C1253.23 192.504 1253.56 191.496 1254.24 190.728C1254.96 189.96 1256.08 189.576 1257.62 189.576C1259.16 189.576 1260.26 189.96 1260.93 190.728C1261.65 191.496 1262.01 192.504 1262.01 193.752V194.688C1262.01 195.936 1261.65 196.944 1260.93 197.712C1260.26 198.48 1259.16 198.864 1257.62 198.864ZM334.868 300V279.06H337.388V297.78H346.298V300H334.868ZM360.878 300C359.978 300 359.328 299.76 358.928 299.28C358.548 298.8 358.308 298.2 358.208 297.48H358.058C357.718 298.44 357.158 299.16 356.378 299.64C355.598 300.12 354.668 300.36 353.588 300.36C351.948 300.36 350.668 299.94 349.748 299.1C348.848 298.26 348.398 297.12 348.398 295.68C348.398 294.22 348.928 293.1 349.988 292.32C351.068 291.54 352.738 291.15 354.998 291.15H358.058V289.62C358.058 288.52 357.758 287.68 357.158 287.1C356.558 286.52 355.638 286.23 354.398 286.23C353.458 286.23 352.668 286.44 352.028 286.86C351.408 287.28 350.888 287.84 350.468 288.54L349.028 287.19C349.448 286.35 350.118 285.64 351.038 285.06C351.958 284.46 353.118 284.16 354.518 284.16C356.398 284.16 357.858 284.62 358.898 285.54C359.938 286.46 360.458 287.74 360.458 289.38V297.9H362.228V300H360.878ZM353.978 298.32C354.578 298.32 355.128 298.25 355.628 298.11C356.128 297.97 356.558 297.77 356.918 297.51C357.278 297.25 357.558 296.95 357.758 296.61C357.958 296.27 358.058 295.9 358.058 295.5V292.95H354.878C353.498 292.95 352.488 293.15 351.848 293.55C351.228 293.95 350.918 294.53 350.918 295.29V295.92C350.918 296.68 351.188 297.27 351.728 297.69C352.288 298.11 353.038 298.32 353.978 298.32ZM375.047 284.52H377.417L370.487 303.6C370.307 304.06 370.127 304.44 369.947 304.74C369.767 305.06 369.547 305.31 369.287 305.49C369.027 305.67 368.697 305.8 368.297 305.88C367.917 305.96 367.447 306 366.887 306H365.657V303.9H368.087L369.257 300.6L363.467 284.52H365.867L369.587 295.05L370.307 297.57H370.457L371.297 295.05L375.047 284.52ZM397.468 297.48H397.348C396.408 299.4 394.898 300.36 392.818 300.36C391.858 300.36 390.988 300.17 390.208 299.79C389.428 299.41 388.758 298.87 388.198 298.17C387.658 297.47 387.238 296.62 386.938 295.62C386.658 294.62 386.518 293.5 386.518 292.26C386.518 291.02 386.658 289.9 386.938 288.9C387.238 287.9 387.658 287.05 388.198 286.35C388.758 285.65 389.428 285.11 390.208 284.73C390.988 284.35 391.858 284.16 392.818 284.16C393.898 284.16 394.818 284.4 395.578 284.88C396.358 285.34 396.948 286.06 397.348 287.04H397.468V277.8H399.868V300H397.468V297.48ZM393.478 298.2C394.018 298.2 394.528 298.13 395.008 297.99C395.508 297.85 395.938 297.65 396.298 297.39C396.658 297.11 396.938 296.78 397.138 296.4C397.358 296 397.468 295.55 397.468 295.05V289.29C397.468 288.87 397.358 288.48 397.138 288.12C396.938 287.74 396.658 287.42 396.298 287.16C395.938 286.9 395.508 286.7 395.008 286.56C394.528 286.4 394.018 286.32 393.478 286.32C392.118 286.32 391.048 286.75 390.268 287.61C389.488 288.45 389.098 289.56 389.098 290.94V293.58C389.098 294.96 389.488 296.08 390.268 296.94C391.048 297.78 392.118 298.2 393.478 298.2ZM410.82 300.36C409.78 300.36 408.83 300.17 407.97 299.79C407.11 299.41 406.37 298.87 405.75 298.17C405.15 297.45 404.68 296.6 404.34 295.62C404 294.62 403.83 293.5 403.83 292.26C403.83 291.04 404 289.93 404.34 288.93C404.68 287.93 405.15 287.08 405.75 286.38C406.37 285.66 407.11 285.11 407.97 284.73C408.83 284.35 409.78 284.16 410.82 284.16C411.86 284.16 412.8 284.35 413.64 284.73C414.5 285.11 415.24 285.66 415.86 286.38C416.48 287.08 416.96 287.93 417.3 288.93C417.64 289.93 417.81 291.04 417.81 292.26C417.81 293.5 417.64 294.62 417.3 295.62C416.96 296.6 416.48 297.45 415.86 298.17C415.24 298.87 414.5 299.41 413.64 299.79C412.8 300.17 411.86 300.36 410.82 300.36ZM410.82 298.23C412.12 298.23 413.18 297.83 414 297.03C414.82 296.23 415.23 295.01 415.23 293.37V291.15C415.23 289.51 414.82 288.29 414 287.49C413.18 286.69 412.12 286.29 410.82 286.29C409.52 286.29 408.46 286.69 407.64 287.49C406.82 288.29 406.41 289.51 406.41 291.15V293.37C406.41 295.01 406.82 296.23 407.64 297.03C408.46 297.83 409.52 298.23 410.82 298.23ZM419.991 284.52H422.331L423.981 291.21L425.631 297.99H425.691L427.581 291.21L429.531 284.52H431.661L433.671 291.21L435.591 297.99H435.651L437.241 291.21L438.921 284.52H441.171L437.061 300H434.091L431.931 292.56L430.581 287.85H430.521L429.201 292.56L427.041 300H424.131L419.991 284.52ZM444.638 300V284.52H447.038V287.04H447.158C447.538 286.16 448.068 285.46 448.748 284.94C449.448 284.42 450.378 284.16 451.538 284.16C453.138 284.16 454.398 284.68 455.318 285.72C456.258 286.74 456.728 288.19 456.728 290.07V300H454.328V290.49C454.328 287.71 453.158 286.32 450.818 286.32C450.338 286.32 449.868 286.38 449.408 286.5C448.968 286.62 448.568 286.8 448.208 287.04C447.848 287.28 447.558 287.59 447.338 287.97C447.138 288.33 447.038 288.76 447.038 289.26V300H444.638ZM480.029 300C479.129 300 478.479 299.76 478.079 299.28C477.699 298.8 477.459 298.2 477.359 297.48H477.209C476.869 298.44 476.309 299.16 475.529 299.64C474.749 300.12 473.819 300.36 472.739 300.36C471.099 300.36 469.819 299.94 468.899 299.1C467.999 298.26 467.549 297.12 467.549 295.68C467.549 294.22 468.079 293.1 469.139 292.32C470.219 291.54 471.889 291.15 474.149 291.15H477.209V289.62C477.209 288.52 476.909 287.68 476.309 287.1C475.709 286.52 474.789 286.23 473.549 286.23C472.609 286.23 471.819 286.44 471.179 286.86C470.559 287.28 470.039 287.84 469.619 288.54L468.179 287.19C468.599 286.35 469.269 285.64 470.189 285.06C471.109 284.46 472.269 284.16 473.669 284.16C475.549 284.16 477.009 284.62 478.049 285.54C479.089 286.46 479.609 287.74 479.609 289.38V297.9H481.379V300H480.029ZM473.129 298.32C473.729 298.32 474.279 298.25 474.779 298.11C475.279 297.97 475.709 297.77 476.069 297.51C476.429 297.25 476.709 296.95 476.909 296.61C477.109 296.27 477.209 295.9 477.209 295.5V292.95H474.029C472.649 292.95 471.639 293.15 470.999 293.55C470.379 293.95 470.069 294.53 470.069 295.29V295.92C470.069 296.68 470.339 297.27 470.879 297.69C471.439 298.11 472.189 298.32 473.129 298.32ZM484.804 300V284.52H487.204V287.37H487.354C487.634 286.63 488.134 285.97 488.854 285.39C489.574 284.81 490.564 284.52 491.824 284.52H492.754V286.92H491.344C490.044 286.92 489.024 287.17 488.284 287.67C487.564 288.15 487.204 288.76 487.204 289.5V300H484.804ZM501.433 300.36C500.353 300.36 499.383 300.17 498.523 299.79C497.663 299.41 496.933 298.87 496.333 298.17C495.753 297.47 495.303 296.62 494.983 295.62C494.683 294.62 494.533 293.5 494.533 292.26C494.533 291.02 494.683 289.9 494.983 288.9C495.303 287.9 495.753 287.05 496.333 286.35C496.933 285.65 497.663 285.11 498.523 284.73C499.383 284.35 500.353 284.16 501.433 284.16C502.973 284.16 504.203 284.5 505.123 285.18C506.063 285.84 506.763 286.71 507.223 287.79L505.213 288.81C504.933 288.01 504.473 287.39 503.833 286.95C503.193 286.51 502.393 286.29 501.433 286.29C500.713 286.29 500.083 286.41 499.543 286.65C499.003 286.87 498.553 287.19 498.193 287.61C497.833 288.01 497.563 288.5 497.383 289.08C497.203 289.64 497.113 290.26 497.113 290.94V293.58C497.113 294.94 497.473 296.06 498.193 296.94C498.933 297.8 500.013 298.23 501.433 298.23C503.373 298.23 504.773 297.33 505.633 295.53L507.373 296.7C506.873 297.82 506.123 298.71 505.123 299.37C504.143 300.03 502.913 300.36 501.433 300.36ZM510.761 277.8H513.161V287.04H513.281C513.661 286.16 514.191 285.46 514.871 284.94C515.571 284.42 516.501 284.16 517.661 284.16C519.261 284.16 520.521 284.68 521.441 285.72C522.381 286.74 522.851 288.19 522.851 290.07V300H520.451V290.49C520.451 287.71 519.281 286.32 516.941 286.32C516.461 286.32 515.991 286.38 515.531 286.5C515.091 286.62 514.691 286.8 514.331 287.04C513.971 287.28 513.681 287.59 513.461 287.97C513.261 288.33 513.161 288.76 513.161 289.26V300H510.761V277.8ZM529.012 280.89C528.492 280.89 528.112 280.77 527.872 280.53C527.652 280.27 527.542 279.94 527.542 279.54V279.15C527.542 278.75 527.652 278.43 527.872 278.19C528.112 277.93 528.492 277.8 529.012 277.8C529.532 277.8 529.902 277.93 530.122 278.19C530.362 278.43 530.482 278.75 530.482 279.15V279.54C530.482 279.94 530.362 280.27 530.122 280.53C529.902 280.77 529.532 280.89 529.012 280.89ZM527.812 284.52H530.212V300H527.812V284.52ZM538.732 300C537.892 300 537.252 299.77 536.812 299.31C536.392 298.83 536.182 298.21 536.182 297.45V286.62H533.632V284.52H535.072C535.592 284.52 535.942 284.42 536.122 284.22C536.322 284 536.422 283.63 536.422 283.11V280.23H538.582V284.52H541.972V286.62H538.582V297.9H541.732V300H538.732ZM551.532 300.36C550.472 300.36 549.512 300.17 548.652 299.79C547.812 299.41 547.082 298.87 546.462 298.17C545.862 297.45 545.392 296.6 545.052 295.62C544.732 294.62 544.572 293.5 544.572 292.26C544.572 291.04 544.732 289.93 545.052 288.93C545.392 287.93 545.862 287.08 546.462 286.38C547.082 285.66 547.812 285.11 548.652 284.73C549.512 284.35 550.472 284.16 551.532 284.16C552.572 284.16 553.502 284.35 554.322 284.73C555.142 285.11 555.842 285.64 556.422 286.32C557.002 286.98 557.442 287.77 557.742 288.69C558.062 289.61 558.222 290.62 558.222 291.72V292.86H547.092V293.58C547.092 294.24 547.192 294.86 547.392 295.44C547.612 296 547.912 296.49 548.292 296.91C548.692 297.33 549.172 297.66 549.732 297.9C550.312 298.14 550.962 298.26 551.682 298.26C552.662 298.26 553.512 298.03 554.232 297.57C554.972 297.11 555.542 296.45 555.942 295.59L557.652 296.82C557.152 297.88 556.372 298.74 555.312 299.4C554.252 300.04 552.992 300.36 551.532 300.36ZM551.532 286.17C550.872 286.17 550.272 286.29 549.732 286.53C549.192 286.75 548.722 287.07 548.322 287.49C547.942 287.91 547.642 288.41 547.422 288.99C547.202 289.55 547.092 290.17 547.092 290.85V291.06H555.642V290.73C555.642 289.35 555.262 288.25 554.502 287.43C553.762 286.59 552.772 286.17 551.532 286.17ZM567.937 300.36C566.857 300.36 565.887 300.17 565.027 299.79C564.167 299.41 563.437 298.87 562.837 298.17C562.257 297.47 561.807 296.62 561.487 295.62C561.187 294.62 561.037 293.5 561.037 292.26C561.037 291.02 561.187 289.9 561.487 288.9C561.807 287.9 562.257 287.05 562.837 286.35C563.437 285.65 564.167 285.11 565.027 284.73C565.887 284.35 566.857 284.16 567.937 284.16C569.477 284.16 570.707 284.5 571.627 285.18C572.567 285.84 573.267 286.71 573.727 287.79L571.717 288.81C571.437 288.01 570.977 287.39 570.337 286.95C569.697 286.51 568.897 286.29 567.937 286.29C567.217 286.29 566.587 286.41 566.047 286.65C565.507 286.87 565.057 287.19 564.697 287.61C564.337 288.01 564.067 288.5 563.887 289.08C563.707 289.64 563.617 290.26 563.617 290.94V293.58C563.617 294.94 563.977 296.06 564.697 296.94C565.437 297.8 566.517 298.23 567.937 298.23C569.877 298.23 571.277 297.33 572.137 295.53L573.877 296.7C573.377 297.82 572.627 298.71 571.627 299.37C570.647 300.03 569.417 300.36 567.937 300.36ZM580.685 300C579.845 300 579.205 299.77 578.765 299.31C578.345 298.83 578.135 298.21 578.135 297.45V286.62H575.585V284.52H577.025C577.545 284.52 577.895 284.42 578.075 284.22C578.275 284 578.375 283.63 578.375 283.11V280.23H580.535V284.52H583.925V286.62H580.535V297.9H583.685V300H580.685ZM597.322 297.48H597.202C597.042 297.84 596.842 298.2 596.602 298.56C596.382 298.9 596.102 299.21 595.762 299.49C595.422 299.75 595.012 299.96 594.532 300.12C594.052 300.28 593.492 300.36 592.852 300.36C591.252 300.36 589.982 299.85 589.042 298.83C588.102 297.79 587.632 296.33 587.632 294.45V284.52H590.032V294.03C590.032 296.81 591.212 298.2 593.572 298.2C594.052 298.2 594.512 298.14 594.952 298.02C595.412 297.9 595.812 297.72 596.152 297.48C596.512 297.24 596.792 296.94 596.992 296.58C597.212 296.2 597.322 295.75 597.322 295.23V284.52H599.722V300H597.322V297.48ZM604.833 300V284.52H607.233V287.37H607.383C607.663 286.63 608.163 285.97 608.883 285.39C609.603 284.81 610.593 284.52 611.853 284.52H612.783V286.92H611.373C610.073 286.92 609.053 287.17 608.313 287.67C607.593 288.15 607.233 288.76 607.233 289.5V300H604.833ZM621.522 300.36C620.462 300.36 619.502 300.17 618.642 299.79C617.802 299.41 617.072 298.87 616.452 298.17C615.852 297.45 615.382 296.6 615.042 295.62C614.722 294.62 614.562 293.5 614.562 292.26C614.562 291.04 614.722 289.93 615.042 288.93C615.382 287.93 615.852 287.08 616.452 286.38C617.072 285.66 617.802 285.11 618.642 284.73C619.502 284.35 620.462 284.16 621.522 284.16C622.562 284.16 623.492 284.35 624.312 284.73C625.132 285.11 625.832 285.64 626.412 286.32C626.992 286.98 627.432 287.77 627.732 288.69C628.052 289.61 628.212 290.62 628.212 291.72V292.86H617.082V293.58C617.082 294.24 617.182 294.86 617.382 295.44C617.602 296 617.902 296.49 618.282 296.91C618.682 297.33 619.162 297.66 619.722 297.9C620.302 298.14 620.952 298.26 621.672 298.26C622.652 298.26 623.502 298.03 624.222 297.57C624.962 297.11 625.532 296.45 625.932 295.59L627.642 296.82C627.142 297.88 626.362 298.74 625.302 299.4C624.242 300.04 622.982 300.36 621.522 300.36ZM621.522 286.17C620.862 286.17 620.262 286.29 619.722 286.53C619.182 286.75 618.712 287.07 618.312 287.49C617.932 287.91 617.632 288.41 617.412 288.99C617.192 289.55 617.082 290.17 617.082 290.85V291.06H625.632V290.73C625.632 289.35 625.252 288.25 624.492 287.43C623.752 286.59 622.762 286.17 621.522 286.17ZM633.111 300.36C632.471 300.36 632.001 300.2 631.701 299.88C631.421 299.56 631.281 299.14 631.281 298.62V298.23C631.281 297.71 631.421 297.29 631.701 296.97C632.001 296.65 632.471 296.49 633.111 296.49C633.751 296.49 634.211 296.65 634.491 296.97C634.791 297.29 634.941 297.71 634.941 298.23V298.62C634.941 299.14 634.791 299.56 634.491 299.88C634.211 300.2 633.751 300.36 633.111 300.36ZM300.159 351.36C298.799 351.36 297.569 351.13 296.469 350.67C295.389 350.19 294.459 349.5 293.679 348.6C292.919 347.68 292.329 346.55 291.909 345.21C291.489 343.85 291.279 342.29 291.279 340.53C291.279 338.77 291.489 337.22 291.909 335.88C292.329 334.54 292.919 333.41 293.679 332.49C294.459 331.57 295.389 330.88 296.469 330.42C297.569 329.94 298.799 329.7 300.159 329.7C301.499 329.7 302.719 329.94 303.819 330.42C304.919 330.88 305.849 331.57 306.609 332.49C307.389 333.41 307.989 334.54 308.409 335.88C308.829 337.22 309.039 338.77 309.039 340.53C309.039 342.29 308.829 343.85 308.409 345.21C307.989 346.55 307.389 347.68 306.609 348.6C305.849 349.5 304.919 350.19 303.819 350.67C302.719 351.13 301.499 351.36 300.159 351.36ZM300.159 349.11C301.059 349.11 301.889 348.95 302.649 348.63C303.409 348.31 304.059 347.85 304.599 347.25C305.159 346.65 305.589 345.93 305.889 345.09C306.189 344.25 306.339 343.31 306.339 342.27V338.79C306.339 337.75 306.189 336.81 305.889 335.97C305.589 335.13 305.159 334.41 304.599 333.81C304.059 333.21 303.409 332.75 302.649 332.43C301.889 332.11 301.059 331.95 300.159 331.95C299.259 331.95 298.429 332.11 297.669 332.43C296.909 332.75 296.249 333.21 295.689 333.81C295.149 334.41 294.729 335.13 294.429 335.97C294.129 336.81 293.979 337.75 293.979 338.79V342.27C293.979 343.31 294.129 344.25 294.429 345.09C294.729 345.93 295.149 346.65 295.689 347.25C296.249 347.85 296.909 348.31 297.669 348.63C298.429 348.95 299.259 349.11 300.159 349.11ZM313.329 335.52H315.729V338.04H315.849C316.249 337.06 316.829 336.34 317.589 335.88C318.369 335.4 319.299 335.16 320.379 335.16C321.339 335.16 322.209 335.35 322.989 335.73C323.769 336.11 324.429 336.65 324.969 337.35C325.529 338.05 325.949 338.9 326.229 339.9C326.529 340.9 326.679 342.02 326.679 343.26C326.679 344.5 326.529 345.62 326.229 346.62C325.949 347.62 325.529 348.47 324.969 349.17C324.429 349.87 323.769 350.41 322.989 350.79C322.209 351.17 321.339 351.36 320.379 351.36C318.279 351.36 316.769 350.4 315.849 348.48H315.729V357H313.329V335.52ZM319.719 349.2C321.079 349.2 322.149 348.78 322.929 347.94C323.709 347.08 324.099 345.96 324.099 344.58V341.94C324.099 340.56 323.709 339.45 322.929 338.61C322.149 337.75 321.079 337.32 319.719 337.32C319.179 337.32 318.659 337.4 318.159 337.56C317.679 337.7 317.259 337.9 316.899 338.16C316.539 338.42 316.249 338.74 316.029 339.12C315.829 339.48 315.729 339.87 315.729 340.29V346.05C315.729 346.55 315.829 347 316.029 347.4C316.249 347.78 316.539 348.11 316.899 348.39C317.259 348.65 317.679 348.85 318.159 348.99C318.659 349.13 319.179 349.2 319.719 349.2ZM333.976 351C333.136 351 332.496 350.77 332.056 350.31C331.636 349.83 331.426 349.21 331.426 348.45V337.62H328.876V335.52H330.316C330.836 335.52 331.186 335.42 331.366 335.22C331.566 335 331.666 334.63 331.666 334.11V331.23H333.826V335.52H337.216V337.62H333.826V348.9H336.976V351H333.976ZM342.273 331.89C341.753 331.89 341.373 331.77 341.133 331.53C340.913 331.27 340.803 330.94 340.803 330.54V330.15C340.803 329.75 340.913 329.43 341.133 329.19C341.373 328.93 341.753 328.8 342.273 328.8C342.793 328.8 343.163 328.93 343.383 329.19C343.623 329.43 343.743 329.75 343.743 330.15V330.54C343.743 330.94 343.623 331.27 343.383 331.53C343.163 331.77 342.793 331.89 342.273 331.89ZM341.073 335.52H343.473V351H341.073V335.52ZM348.573 351V335.52H350.973V338.04H351.093C351.273 337.64 351.473 337.27 351.693 336.93C351.933 336.57 352.213 336.26 352.533 336C352.873 335.74 353.263 335.54 353.703 335.4C354.143 335.24 354.663 335.16 355.263 335.16C356.283 335.16 357.223 335.41 358.083 335.91C358.943 336.39 359.583 337.19 360.003 338.31H360.063C360.343 337.47 360.863 336.74 361.623 336.12C362.403 335.48 363.453 335.16 364.773 335.16C366.353 335.16 367.583 335.68 368.463 336.72C369.363 337.74 369.813 339.19 369.813 341.07V351H367.413V341.49C367.413 340.11 367.143 339.07 366.603 338.37C366.063 337.67 365.203 337.32 364.023 337.32C363.543 337.32 363.083 337.38 362.643 337.5C362.223 337.62 361.843 337.8 361.503 338.04C361.163 338.28 360.893 338.59 360.693 338.97C360.493 339.33 360.393 339.76 360.393 340.26V351H357.993V341.49C357.993 340.11 357.723 339.07 357.183 338.37C356.643 337.67 355.803 337.32 354.663 337.32C354.183 337.32 353.723 337.38 353.283 337.5C352.843 337.62 352.453 337.8 352.113 338.04C351.773 338.28 351.493 338.59 351.273 338.97C351.073 339.33 350.973 339.76 350.973 340.26V351H348.573ZM375.965 331.89C375.445 331.89 375.065 331.77 374.825 331.53C374.605 331.27 374.495 330.94 374.495 330.54V330.15C374.495 329.75 374.605 329.43 374.825 329.19C375.065 328.93 375.445 328.8 375.965 328.8C376.485 328.8 376.855 328.93 377.075 329.19C377.315 329.43 377.435 329.75 377.435 330.15V330.54C377.435 330.94 377.315 331.27 377.075 331.53C376.855 331.77 376.485 331.89 375.965 331.89ZM374.765 335.52H377.165V351H374.765V335.52ZM380.705 351V348.99L389.495 337.62H380.975V335.52H392.405V337.32L383.435 348.9H392.645V351H380.705ZM401.708 351.36C400.648 351.36 399.688 351.17 398.828 350.79C397.988 350.41 397.258 349.87 396.638 349.17C396.038 348.45 395.568 347.6 395.228 346.62C394.908 345.62 394.748 344.5 394.748 343.26C394.748 342.04 394.908 340.93 395.228 339.93C395.568 338.93 396.038 338.08 396.638 337.38C397.258 336.66 397.988 336.11 398.828 335.73C399.688 335.35 400.648 335.16 401.708 335.16C402.748 335.16 403.678 335.35 404.498 335.73C405.318 336.11 406.018 336.64 406.598 337.32C407.178 337.98 407.618 338.77 407.918 339.69C408.238 340.61 408.398 341.62 408.398 342.72V343.86H397.268V344.58C397.268 345.24 397.368 345.86 397.568 346.44C397.788 347 398.088 347.49 398.468 347.91C398.868 348.33 399.348 348.66 399.908 348.9C400.488 349.14 401.138 349.26 401.858 349.26C402.838 349.26 403.688 349.03 404.408 348.57C405.148 348.11 405.718 347.45 406.118 346.59L407.828 347.82C407.328 348.88 406.548 349.74 405.488 350.4C404.428 351.04 403.168 351.36 401.708 351.36ZM401.708 337.17C401.048 337.17 400.448 337.29 399.908 337.53C399.368 337.75 398.898 338.07 398.498 338.49C398.118 338.91 397.818 339.41 397.598 339.99C397.378 340.55 397.268 341.17 397.268 341.85V342.06H405.818V341.73C405.818 340.35 405.438 339.25 404.678 338.43C403.938 337.59 402.948 337.17 401.708 337.17ZM425.203 351.36C424.123 351.36 423.153 351.17 422.293 350.79C421.433 350.41 420.703 349.87 420.103 349.17C419.523 348.47 419.073 347.62 418.753 346.62C418.453 345.62 418.303 344.5 418.303 343.26C418.303 342.02 418.453 340.9 418.753 339.9C419.073 338.9 419.523 338.05 420.103 337.35C420.703 336.65 421.433 336.11 422.293 335.73C423.153 335.35 424.123 335.16 425.203 335.16C426.743 335.16 427.973 335.5 428.893 336.18C429.833 336.84 430.533 337.71 430.993 338.79L428.983 339.81C428.703 339.01 428.243 338.39 427.603 337.95C426.963 337.51 426.163 337.29 425.203 337.29C424.483 337.29 423.853 337.41 423.313 337.65C422.773 337.87 422.323 338.19 421.963 338.61C421.603 339.01 421.333 339.5 421.153 340.08C420.973 340.64 420.883 341.26 420.883 341.94V344.58C420.883 345.94 421.243 347.06 421.963 347.94C422.703 348.8 423.783 349.23 425.203 349.23C427.143 349.23 428.543 348.33 429.403 346.53L431.143 347.7C430.643 348.82 429.893 349.71 428.893 350.37C427.913 351.03 426.683 351.36 425.203 351.36ZM440.205 351.36C439.165 351.36 438.215 351.17 437.355 350.79C436.495 350.41 435.755 349.87 435.135 349.17C434.535 348.45 434.065 347.6 433.725 346.62C433.385 345.62 433.215 344.5 433.215 343.26C433.215 342.04 433.385 340.93 433.725 339.93C434.065 338.93 434.535 338.08 435.135 337.38C435.755 336.66 436.495 336.11 437.355 335.73C438.215 335.35 439.165 335.16 440.205 335.16C441.245 335.16 442.185 335.35 443.025 335.73C443.885 336.11 444.625 336.66 445.245 337.38C445.865 338.08 446.345 338.93 446.685 339.93C447.025 340.93 447.195 342.04 447.195 343.26C447.195 344.5 447.025 345.62 446.685 346.62C446.345 347.6 445.865 348.45 445.245 349.17C444.625 349.87 443.885 350.41 443.025 350.79C442.185 351.17 441.245 351.36 440.205 351.36ZM440.205 349.23C441.505 349.23 442.565 348.83 443.385 348.03C444.205 347.23 444.615 346.01 444.615 344.37V342.15C444.615 340.51 444.205 339.29 443.385 338.49C442.565 337.69 441.505 337.29 440.205 337.29C438.905 337.29 437.845 337.69 437.025 338.49C436.205 339.29 435.795 340.51 435.795 342.15V344.37C435.795 346.01 436.205 347.23 437.025 348.03C437.845 348.83 438.905 349.23 440.205 349.23ZM451.142 351V335.52H453.542V338.04H453.662C453.842 337.64 454.042 337.27 454.262 336.93C454.502 336.57 454.782 336.26 455.102 336C455.442 335.74 455.832 335.54 456.272 335.4C456.712 335.24 457.232 335.16 457.832 335.16C458.852 335.16 459.792 335.41 460.652 335.91C461.512 336.39 462.152 337.19 462.572 338.31H462.632C462.912 337.47 463.432 336.74 464.192 336.12C464.972 335.48 466.022 335.16 467.342 335.16C468.922 335.16 470.152 335.68 471.032 336.72C471.932 337.74 472.382 339.19 472.382 341.07V351H469.982V341.49C469.982 340.11 469.712 339.07 469.172 338.37C468.632 337.67 467.772 337.32 466.592 337.32C466.112 337.32 465.652 337.38 465.212 337.5C464.792 337.62 464.412 337.8 464.072 338.04C463.732 338.28 463.462 338.59 463.262 338.97C463.062 339.33 462.962 339.76 462.962 340.26V351H460.562V341.49C460.562 340.11 460.292 339.07 459.752 338.37C459.212 337.67 458.372 337.32 457.232 337.32C456.752 337.32 456.292 337.38 455.852 337.5C455.412 337.62 455.022 337.8 454.682 338.04C454.342 338.28 454.062 338.59 453.842 338.97C453.642 339.33 453.542 339.76 453.542 340.26V351H451.142ZM477.333 335.52H479.733V338.04H479.853C480.253 337.06 480.833 336.34 481.593 335.88C482.373 335.4 483.303 335.16 484.383 335.16C485.343 335.16 486.213 335.35 486.993 335.73C487.773 336.11 488.433 336.65 488.973 337.35C489.533 338.05 489.953 338.9 490.233 339.9C490.533 340.9 490.683 342.02 490.683 343.26C490.683 344.5 490.533 345.62 490.233 346.62C489.953 347.62 489.533 348.47 488.973 349.17C488.433 349.87 487.773 350.41 486.993 350.79C486.213 351.17 485.343 351.36 484.383 351.36C482.283 351.36 480.773 350.4 479.853 348.48H479.733V357H477.333V335.52ZM483.723 349.2C485.083 349.2 486.153 348.78 486.933 347.94C487.713 347.08 488.103 345.96 488.103 344.58V341.94C488.103 340.56 487.713 339.45 486.933 338.61C486.153 337.75 485.083 337.32 483.723 337.32C483.183 337.32 482.663 337.4 482.163 337.56C481.683 337.7 481.263 337.9 480.903 338.16C480.543 338.42 480.253 338.74 480.033 339.12C479.833 339.48 479.733 339.87 479.733 340.29V346.05C479.733 346.55 479.833 347 480.033 347.4C480.253 347.78 480.543 348.11 480.903 348.39C481.263 348.65 481.683 348.85 482.163 348.99C482.663 349.13 483.183 349.2 483.723 349.2ZM500.586 351.36C499.546 351.36 498.596 351.17 497.736 350.79C496.876 350.41 496.136 349.87 495.516 349.17C494.916 348.45 494.446 347.6 494.106 346.62C493.766 345.62 493.596 344.5 493.596 343.26C493.596 342.04 493.766 340.93 494.106 339.93C494.446 338.93 494.916 338.08 495.516 337.38C496.136 336.66 496.876 336.11 497.736 335.73C498.596 335.35 499.546 335.16 500.586 335.16C501.626 335.16 502.566 335.35 503.406 335.73C504.266 336.11 505.006 336.66 505.626 337.38C506.246 338.08 506.726 338.93 507.066 339.93C507.406 340.93 507.576 342.04 507.576 343.26C507.576 344.5 507.406 345.62 507.066 346.62C506.726 347.6 506.246 348.45 505.626 349.17C505.006 349.87 504.266 350.41 503.406 350.79C502.566 351.17 501.626 351.36 500.586 351.36ZM500.586 349.23C501.886 349.23 502.946 348.83 503.766 348.03C504.586 347.23 504.996 346.01 504.996 344.37V342.15C504.996 340.51 504.586 339.29 503.766 338.49C502.946 337.69 501.886 337.29 500.586 337.29C499.286 337.29 498.226 337.69 497.406 338.49C496.586 339.29 496.176 340.51 496.176 342.15V344.37C496.176 346.01 496.586 347.23 497.406 348.03C498.226 348.83 499.286 349.23 500.586 349.23ZM511.523 351V335.52H513.923V338.04H514.043C514.423 337.16 514.953 336.46 515.633 335.94C516.333 335.42 517.263 335.16 518.423 335.16C520.023 335.16 521.283 335.68 522.203 336.72C523.143 337.74 523.613 339.19 523.613 341.07V351H521.213V341.49C521.213 338.71 520.043 337.32 517.703 337.32C517.223 337.32 516.753 337.38 516.293 337.5C515.853 337.62 515.453 337.8 515.093 338.04C514.733 338.28 514.443 338.59 514.223 338.97C514.023 339.33 513.923 339.76 513.923 340.26V351H511.523ZM534.393 351.36C533.333 351.36 532.373 351.17 531.513 350.79C530.673 350.41 529.943 349.87 529.323 349.17C528.723 348.45 528.253 347.6 527.913 346.62C527.593 345.62 527.433 344.5 527.433 343.26C527.433 342.04 527.593 340.93 527.913 339.93C528.253 338.93 528.723 338.08 529.323 337.38C529.943 336.66 530.673 336.11 531.513 335.73C532.373 335.35 533.333 335.16 534.393 335.16C535.433 335.16 536.363 335.35 537.183 335.73C538.003 336.11 538.703 336.64 539.283 337.32C539.863 337.98 540.303 338.77 540.603 339.69C540.923 340.61 541.083 341.62 541.083 342.72V343.86H529.953V344.58C529.953 345.24 530.053 345.86 530.253 346.44C530.473 347 530.773 347.49 531.153 347.91C531.553 348.33 532.033 348.66 532.593 348.9C533.173 349.14 533.823 349.26 534.543 349.26C535.523 349.26 536.373 349.03 537.093 348.57C537.833 348.11 538.403 347.45 538.803 346.59L540.513 347.82C540.013 348.88 539.233 349.74 538.173 350.4C537.113 351.04 535.853 351.36 534.393 351.36ZM534.393 337.17C533.733 337.17 533.133 337.29 532.593 337.53C532.053 337.75 531.583 338.07 531.183 338.49C530.803 338.91 530.503 339.41 530.283 339.99C530.063 340.55 529.953 341.17 529.953 341.85V342.06H538.503V341.73C538.503 340.35 538.123 339.25 537.363 338.43C536.623 337.59 535.633 337.17 534.393 337.17ZM545.038 351V335.52H547.438V338.04H547.558C547.938 337.16 548.468 336.46 549.148 335.94C549.848 335.42 550.778 335.16 551.938 335.16C553.538 335.16 554.798 335.68 555.718 336.72C556.658 337.74 557.128 339.19 557.128 341.07V351H554.728V341.49C554.728 338.71 553.558 337.32 551.218 337.32C550.738 337.32 550.268 337.38 549.808 337.5C549.368 337.62 548.968 337.8 548.608 338.04C548.248 338.28 547.958 338.59 547.738 338.97C547.538 339.33 547.438 339.76 547.438 340.26V351H545.038ZM565.509 351C564.669 351 564.029 350.77 563.589 350.31C563.169 349.83 562.959 349.21 562.959 348.45V337.62H560.409V335.52H561.849C562.369 335.52 562.719 335.42 562.899 335.22C563.099 335 563.199 334.63 563.199 334.11V331.23H565.359V335.52H568.749V337.62H565.359V348.9H568.509V351H565.509ZM577.257 351.36C575.817 351.36 574.607 351.09 573.627 350.55C572.667 349.99 571.837 349.25 571.137 348.33L572.847 346.95C573.447 347.71 574.117 348.3 574.857 348.72C575.597 349.12 576.457 349.32 577.437 349.32C578.457 349.32 579.247 349.1 579.807 348.66C580.387 348.22 580.677 347.6 580.677 346.8C580.677 346.2 580.477 345.69 580.077 345.27C579.697 344.83 578.997 344.53 577.977 344.37L576.747 344.19C576.027 344.09 575.367 343.94 574.767 343.74C574.167 343.52 573.637 343.24 573.177 342.9C572.737 342.54 572.387 342.1 572.127 341.58C571.887 341.06 571.767 340.44 571.767 339.72C571.767 338.96 571.907 338.3 572.187 337.74C572.467 337.16 572.847 336.68 573.327 336.3C573.827 335.92 574.417 335.64 575.097 335.46C575.777 335.26 576.507 335.16 577.287 335.16C578.547 335.16 579.597 335.38 580.437 335.82C581.297 336.26 582.047 336.87 582.687 337.65L581.097 339.09C580.757 338.61 580.257 338.18 579.597 337.8C578.937 337.4 578.107 337.2 577.107 337.2C576.107 337.2 575.347 337.42 574.827 337.86C574.327 338.28 574.077 338.86 574.077 339.6C574.077 340.36 574.327 340.91 574.827 341.25C575.347 341.59 576.087 341.84 577.047 342L578.247 342.18C579.967 342.44 581.187 342.94 581.907 343.68C582.627 344.4 582.987 345.35 582.987 346.53C582.987 348.03 582.477 349.21 581.457 350.07C580.437 350.93 579.037 351.36 577.257 351.36ZM588.609 351.36C587.969 351.36 587.499 351.2 587.199 350.88C586.919 350.56 586.779 350.14 586.779 349.62V349.23C586.779 348.71 586.919 348.29 587.199 347.97C587.499 347.65 587.969 347.49 588.609 347.49C589.249 347.49 589.709 347.65 589.989 347.97C590.289 348.29 590.439 348.71 590.439 349.23V349.62C590.439 350.14 590.289 350.56 589.989 350.88C589.709 351.2 589.249 351.36 588.609 351.36ZM249.79 381.06H256.81C258.11 381.06 259.29 381.28 260.35 381.72C261.41 382.16 262.31 382.82 263.05 383.7C263.81 384.56 264.39 385.65 264.79 386.97C265.19 388.27 265.39 389.79 265.39 391.53C265.39 393.27 265.19 394.8 264.79 396.12C264.39 397.42 263.81 398.51 263.05 399.39C262.31 400.25 261.41 400.9 260.35 401.34C259.29 401.78 258.11 402 256.81 402H249.79V381.06ZM256.81 399.78C257.67 399.78 258.46 399.64 259.18 399.36C259.9 399.06 260.52 398.63 261.04 398.07C261.56 397.51 261.96 396.83 262.24 396.03C262.54 395.21 262.69 394.28 262.69 393.24V389.82C262.69 388.78 262.54 387.86 262.24 387.06C261.96 386.24 261.56 385.55 261.04 384.99C260.52 384.43 259.9 384.01 259.18 383.73C258.46 383.43 257.67 383.28 256.81 383.28H252.31V399.78H256.81ZM275.497 402.36C274.437 402.36 273.477 402.17 272.617 401.79C271.777 401.41 271.047 400.87 270.427 400.17C269.827 399.45 269.357 398.6 269.017 397.62C268.697 396.62 268.537 395.5 268.537 394.26C268.537 393.04 268.697 391.93 269.017 390.93C269.357 389.93 269.827 389.08 270.427 388.38C271.047 387.66 271.777 387.11 272.617 386.73C273.477 386.35 274.437 386.16 275.497 386.16C276.537 386.16 277.467 386.35 278.287 386.73C279.107 387.11 279.807 387.64 280.387 388.32C280.967 388.98 281.407 389.77 281.707 390.69C282.027 391.61 282.187 392.62 282.187 393.72V394.86H271.057V395.58C271.057 396.24 271.157 396.86 271.357 397.44C271.577 398 271.877 398.49 272.257 398.91C272.657 399.33 273.137 399.66 273.697 399.9C274.277 400.14 274.927 400.26 275.647 400.26C276.627 400.26 277.477 400.03 278.197 399.57C278.937 399.11 279.507 398.45 279.907 397.59L281.617 398.82C281.117 399.88 280.337 400.74 279.277 401.4C278.217 402.04 276.957 402.36 275.497 402.36ZM275.497 388.17C274.837 388.17 274.237 388.29 273.697 388.53C273.157 388.75 272.687 389.07 272.287 389.49C271.907 389.91 271.607 390.41 271.387 390.99C271.167 391.55 271.057 392.17 271.057 392.85V393.06H279.607V392.73C279.607 391.35 279.227 390.25 278.467 389.43C277.727 388.59 276.737 388.17 275.497 388.17ZM289.327 402L283.897 386.52H286.297L288.997 394.2L290.677 399.48H290.827L292.507 394.2L295.267 386.52H297.577L292.117 402H289.327ZM306.259 402.36C305.199 402.36 304.239 402.17 303.379 401.79C302.539 401.41 301.809 400.87 301.189 400.17C300.589 399.45 300.119 398.6 299.779 397.62C299.459 396.62 299.299 395.5 299.299 394.26C299.299 393.04 299.459 391.93 299.779 390.93C300.119 389.93 300.589 389.08 301.189 388.38C301.809 387.66 302.539 387.11 303.379 386.73C304.239 386.35 305.199 386.16 306.259 386.16C307.299 386.16 308.229 386.35 309.049 386.73C309.869 387.11 310.569 387.64 311.149 388.32C311.729 388.98 312.169 389.77 312.469 390.69C312.789 391.61 312.949 392.62 312.949 393.72V394.86H301.819V395.58C301.819 396.24 301.919 396.86 302.119 397.44C302.339 398 302.639 398.49 303.019 398.91C303.419 399.33 303.899 399.66 304.459 399.9C305.039 400.14 305.689 400.26 306.409 400.26C307.389 400.26 308.239 400.03 308.959 399.57C309.699 399.11 310.269 398.45 310.669 397.59L312.379 398.82C311.879 399.88 311.099 400.74 310.039 401.4C308.979 402.04 307.719 402.36 306.259 402.36ZM306.259 388.17C305.599 388.17 304.999 388.29 304.459 388.53C303.919 388.75 303.449 389.07 303.049 389.49C302.669 389.91 302.369 390.41 302.149 390.99C301.929 391.55 301.819 392.17 301.819 392.85V393.06H310.369V392.73C310.369 391.35 309.989 390.25 309.229 389.43C308.489 388.59 307.499 388.17 306.259 388.17ZM319.454 402C318.614 402 317.974 401.77 317.534 401.31C317.114 400.83 316.904 400.23 316.904 399.51V379.8H319.304V399.9H321.584V402H319.454ZM330.927 402.36C329.887 402.36 328.937 402.17 328.077 401.79C327.217 401.41 326.477 400.87 325.857 400.17C325.257 399.45 324.787 398.6 324.447 397.62C324.107 396.62 323.937 395.5 323.937 394.26C323.937 393.04 324.107 391.93 324.447 390.93C324.787 389.93 325.257 389.08 325.857 388.38C326.477 387.66 327.217 387.11 328.077 386.73C328.937 386.35 329.887 386.16 330.927 386.16C331.967 386.16 332.907 386.35 333.747 386.73C334.607 387.11 335.347 387.66 335.967 388.38C336.587 389.08 337.067 389.93 337.407 390.93C337.747 391.93 337.917 393.04 337.917 394.26C337.917 395.5 337.747 396.62 337.407 397.62C337.067 398.6 336.587 399.45 335.967 400.17C335.347 400.87 334.607 401.41 333.747 401.79C332.907 402.17 331.967 402.36 330.927 402.36ZM330.927 400.23C332.227 400.23 333.287 399.83 334.107 399.03C334.927 398.23 335.337 397.01 335.337 395.37V393.15C335.337 391.51 334.927 390.29 334.107 389.49C333.287 388.69 332.227 388.29 330.927 388.29C329.627 388.29 328.567 388.69 327.747 389.49C326.927 390.29 326.517 391.51 326.517 393.15V395.37C326.517 397.01 326.927 398.23 327.747 399.03C328.567 399.83 329.627 400.23 330.927 400.23ZM341.864 386.52H344.264V389.04H344.384C344.784 388.06 345.364 387.34 346.124 386.88C346.904 386.4 347.834 386.16 348.914 386.16C349.874 386.16 350.744 386.35 351.524 386.73C352.304 387.11 352.964 387.65 353.504 388.35C354.064 389.05 354.484 389.9 354.764 390.9C355.064 391.9 355.214 393.02 355.214 394.26C355.214 395.5 355.064 396.62 354.764 397.62C354.484 398.62 354.064 399.47 353.504 400.17C352.964 400.87 352.304 401.41 351.524 401.79C350.744 402.17 349.874 402.36 348.914 402.36C346.814 402.36 345.304 401.4 344.384 399.48H344.264V408H341.864V386.52ZM348.254 400.2C349.614 400.2 350.684 399.78 351.464 398.94C352.244 398.08 352.634 396.96 352.634 395.58V392.94C352.634 391.56 352.244 390.45 351.464 389.61C350.684 388.75 349.614 388.32 348.254 388.32C347.714 388.32 347.194 388.4 346.694 388.56C346.214 388.7 345.794 388.9 345.434 389.16C345.074 389.42 344.784 389.74 344.564 390.12C344.364 390.48 344.264 390.87 344.264 391.29V397.05C344.264 397.55 344.364 398 344.564 398.4C344.784 398.78 345.074 399.11 345.434 399.39C345.794 399.65 346.214 399.85 346.694 399.99C347.194 400.13 347.714 400.2 348.254 400.2ZM366.357 402V386.52H368.757V389.04H368.877C369.257 388.16 369.787 387.46 370.467 386.94C371.167 386.42 372.097 386.16 373.257 386.16C374.857 386.16 376.117 386.68 377.037 387.72C377.977 388.74 378.447 390.19 378.447 392.07V402H376.047V392.49C376.047 389.71 374.877 388.32 372.537 388.32C372.057 388.32 371.587 388.38 371.127 388.5C370.687 388.62 370.287 388.8 369.927 389.04C369.567 389.28 369.277 389.59 369.057 389.97C368.857 390.33 368.757 390.76 368.757 391.26V402H366.357ZM389.227 402.36C388.167 402.36 387.207 402.17 386.347 401.79C385.507 401.41 384.777 400.87 384.157 400.17C383.557 399.45 383.087 398.6 382.747 397.62C382.427 396.62 382.267 395.5 382.267 394.26C382.267 393.04 382.427 391.93 382.747 390.93C383.087 389.93 383.557 389.08 384.157 388.38C384.777 387.66 385.507 387.11 386.347 386.73C387.207 386.35 388.167 386.16 389.227 386.16C390.267 386.16 391.197 386.35 392.017 386.73C392.837 387.11 393.537 387.64 394.117 388.32C394.697 388.98 395.137 389.77 395.437 390.69C395.757 391.61 395.917 392.62 395.917 393.72V394.86H384.787V395.58C384.787 396.24 384.887 396.86 385.087 397.44C385.307 398 385.607 398.49 385.987 398.91C386.387 399.33 386.867 399.66 387.427 399.9C388.007 400.14 388.657 400.26 389.377 400.26C390.357 400.26 391.207 400.03 391.927 399.57C392.667 399.11 393.237 398.45 393.637 397.59L395.347 398.82C394.847 399.88 394.067 400.74 393.007 401.4C391.947 402.04 390.687 402.36 389.227 402.36ZM389.227 388.17C388.567 388.17 387.967 388.29 387.427 388.53C386.887 388.75 386.417 389.07 386.017 389.49C385.637 389.91 385.337 390.41 385.117 390.99C384.897 391.55 384.787 392.17 384.787 392.85V393.06H393.337V392.73C393.337 391.35 392.957 390.25 392.197 389.43C391.457 388.59 390.467 388.17 389.227 388.17ZM398.106 386.52H400.446L402.096 393.21L403.746 399.99H403.806L405.696 393.21L407.646 386.52H409.776L411.786 393.21L413.706 399.99H413.766L415.356 393.21L417.036 386.52H419.286L415.176 402H412.206L410.046 394.56L408.696 389.85H408.636L407.316 394.56L405.156 402H402.246L398.106 386.52ZM430.683 388.62H428.163V386.52H430.683V383.4C430.683 382.32 430.963 381.45 431.523 380.79C432.083 380.13 432.933 379.8 434.073 379.8H436.413V381.9H433.083V386.52H436.413V388.62H433.083V402H430.683V388.62ZM445.272 402.36C444.212 402.36 443.252 402.17 442.392 401.79C441.552 401.41 440.822 400.87 440.202 400.17C439.602 399.45 439.132 398.6 438.792 397.62C438.472 396.62 438.312 395.5 438.312 394.26C438.312 393.04 438.472 391.93 438.792 390.93C439.132 389.93 439.602 389.08 440.202 388.38C440.822 387.66 441.552 387.11 442.392 386.73C443.252 386.35 444.212 386.16 445.272 386.16C446.312 386.16 447.242 386.35 448.062 386.73C448.882 387.11 449.582 387.64 450.162 388.32C450.742 388.98 451.182 389.77 451.482 390.69C451.802 391.61 451.962 392.62 451.962 393.72V394.86H440.832V395.58C440.832 396.24 440.932 396.86 441.132 397.44C441.352 398 441.652 398.49 442.032 398.91C442.432 399.33 442.912 399.66 443.472 399.9C444.052 400.14 444.702 400.26 445.422 400.26C446.402 400.26 447.252 400.03 447.972 399.57C448.712 399.11 449.282 398.45 449.682 397.59L451.392 398.82C450.892 399.88 450.112 400.74 449.052 401.4C447.992 402.04 446.732 402.36 445.272 402.36ZM445.272 388.17C444.612 388.17 444.012 388.29 443.472 388.53C442.932 388.75 442.462 389.07 442.062 389.49C441.682 389.91 441.382 390.41 441.162 390.99C440.942 391.55 440.832 392.17 440.832 392.85V393.06H449.382V392.73C449.382 391.35 449.002 390.25 448.242 389.43C447.502 388.59 446.512 388.17 445.272 388.17ZM467.167 402C466.267 402 465.617 401.76 465.217 401.28C464.837 400.8 464.597 400.2 464.497 399.48H464.347C464.007 400.44 463.447 401.16 462.667 401.64C461.887 402.12 460.957 402.36 459.877 402.36C458.237 402.36 456.957 401.94 456.037 401.1C455.137 400.26 454.687 399.12 454.687 397.68C454.687 396.22 455.217 395.1 456.277 394.32C457.357 393.54 459.027 393.15 461.287 393.15H464.347V391.62C464.347 390.52 464.047 389.68 463.447 389.1C462.847 388.52 461.927 388.23 460.687 388.23C459.747 388.23 458.957 388.44 458.317 388.86C457.697 389.28 457.177 389.84 456.757 390.54L455.317 389.19C455.737 388.35 456.407 387.64 457.327 387.06C458.247 386.46 459.407 386.16 460.807 386.16C462.687 386.16 464.147 386.62 465.187 387.54C466.227 388.46 466.747 389.74 466.747 391.38V399.9H468.517V402H467.167ZM460.267 400.32C460.867 400.32 461.417 400.25 461.917 400.11C462.417 399.97 462.847 399.77 463.207 399.51C463.567 399.25 463.847 398.95 464.047 398.61C464.247 398.27 464.347 397.9 464.347 397.5V394.95H461.167C459.787 394.95 458.777 395.15 458.137 395.55C457.517 395.95 457.207 396.53 457.207 397.29V397.92C457.207 398.68 457.477 399.27 458.017 399.69C458.577 400.11 459.327 400.32 460.267 400.32ZM475.363 402C474.523 402 473.883 401.77 473.443 401.31C473.023 400.83 472.813 400.21 472.813 399.45V388.62H470.263V386.52H471.703C472.223 386.52 472.573 386.42 472.753 386.22C472.953 386 473.053 385.63 473.053 385.11V382.23H475.213V386.52H478.603V388.62H475.213V399.9H478.363V402H475.363ZM492 399.48H491.88C491.72 399.84 491.52 400.2 491.28 400.56C491.06 400.9 490.78 401.21 490.44 401.49C490.1 401.75 489.69 401.96 489.21 402.12C488.73 402.28 488.17 402.36 487.53 402.36C485.93 402.36 484.66 401.85 483.72 400.83C482.78 399.79 482.31 398.33 482.31 396.45V386.52H484.71V396.03C484.71 398.81 485.89 400.2 488.25 400.2C488.73 400.2 489.19 400.14 489.63 400.02C490.09 399.9 490.49 399.72 490.83 399.48C491.19 399.24 491.47 398.94 491.67 398.58C491.89 398.2 492 397.75 492 397.23V386.52H494.4V402H492V399.48ZM499.511 402V386.52H501.911V389.37H502.061C502.341 388.63 502.841 387.97 503.561 387.39C504.281 386.81 505.271 386.52 506.531 386.52H507.461V388.92H506.051C504.751 388.92 503.731 389.17 502.991 389.67C502.271 390.15 501.911 390.76 501.911 391.5V402H499.511ZM516.2 402.36C515.14 402.36 514.18 402.17 513.32 401.79C512.48 401.41 511.75 400.87 511.13 400.17C510.53 399.45 510.06 398.6 509.72 397.62C509.4 396.62 509.24 395.5 509.24 394.26C509.24 393.04 509.4 391.93 509.72 390.93C510.06 389.93 510.53 389.08 511.13 388.38C511.75 387.66 512.48 387.11 513.32 386.73C514.18 386.35 515.14 386.16 516.2 386.16C517.24 386.16 518.17 386.35 518.99 386.73C519.81 387.11 520.51 387.64 521.09 388.32C521.67 388.98 522.11 389.77 522.41 390.69C522.73 391.61 522.89 392.62 522.89 393.72V394.86H511.76V395.58C511.76 396.24 511.86 396.86 512.06 397.44C512.28 398 512.58 398.49 512.96 398.91C513.36 399.33 513.84 399.66 514.4 399.9C514.98 400.14 515.63 400.26 516.35 400.26C517.33 400.26 518.18 400.03 518.9 399.57C519.64 399.11 520.21 398.45 520.61 397.59L522.32 398.82C521.82 399.88 521.04 400.74 519.98 401.4C518.92 402.04 517.66 402.36 516.2 402.36ZM516.2 388.17C515.54 388.17 514.94 388.29 514.4 388.53C513.86 388.75 513.39 389.07 512.99 389.49C512.61 389.91 512.31 390.41 512.09 390.99C511.87 391.55 511.76 392.17 511.76 392.85V393.06H520.31V392.73C520.31 391.35 519.93 390.25 519.17 389.43C518.43 388.59 517.44 388.17 516.2 388.17ZM531.495 402.36C530.055 402.36 528.845 402.09 527.865 401.55C526.905 400.99 526.075 400.25 525.375 399.33L527.085 397.95C527.685 398.71 528.355 399.3 529.095 399.72C529.835 400.12 530.695 400.32 531.675 400.32C532.695 400.32 533.485 400.1 534.045 399.66C534.625 399.22 534.915 398.6 534.915 397.8C534.915 397.2 534.715 396.69 534.315 396.27C533.935 395.83 533.235 395.53 532.215 395.37L530.985 395.19C530.265 395.09 529.605 394.94 529.005 394.74C528.405 394.52 527.875 394.24 527.415 393.9C526.975 393.54 526.625 393.1 526.365 392.58C526.125 392.06 526.005 391.44 526.005 390.72C526.005 389.96 526.145 389.3 526.425 388.74C526.705 388.16 527.085 387.68 527.565 387.3C528.065 386.92 528.655 386.64 529.335 386.46C530.015 386.26 530.745 386.16 531.525 386.16C532.785 386.16 533.835 386.38 534.675 386.82C535.535 387.26 536.285 387.87 536.925 388.65L535.335 390.09C534.995 389.61 534.495 389.18 533.835 388.8C533.175 388.4 532.345 388.2 531.345 388.2C530.345 388.2 529.585 388.42 529.065 388.86C528.565 389.28 528.315 389.86 528.315 390.6C528.315 391.36 528.565 391.91 529.065 392.25C529.585 392.59 530.325 392.84 531.285 393L532.485 393.18C534.205 393.44 535.425 393.94 536.145 394.68C536.865 395.4 537.225 396.35 537.225 397.53C537.225 399.03 536.715 400.21 535.695 401.07C534.675 401.93 533.275 402.36 531.495 402.36ZM542.848 402.36C542.208 402.36 541.738 402.2 541.438 401.88C541.158 401.56 541.018 401.14 541.018 400.62V400.23C541.018 399.71 541.158 399.29 541.438 398.97C541.738 398.65 542.208 398.49 542.848 398.49C543.488 398.49 543.948 398.65 544.228 398.97C544.528 399.29 544.678 399.71 544.678 400.23V400.62C544.678 401.14 544.528 401.56 544.228 401.88C543.948 402.2 543.488 402.36 542.848 402.36Z" fill="#464646"/>
</svg>
