<svg width="1512" height="982" viewBox="0 0 1512 982" fill="none" xmlns="http://www.w3.org/2000/svg">
<rect width="1512" height="982" fill="white"/>
<path d="M214.432 574.2C227.488 574.2 237.76 577.32 245.248 583.56C252.736 589.8 256.48 598.392 256.48 609.336C256.48 620.28 252.736 628.872 245.248 635.112C237.76 641.352 227.488 644.472 214.432 644.472H189.52V675H175.12V574.2H214.432ZM214 631.944C223.12 631.944 230.08 630.024 234.88 626.184C239.68 622.248 242.08 616.632 242.08 609.336C242.08 602.04 239.68 596.472 234.88 592.632C230.08 588.696 223.12 586.728 214 586.728H189.52V631.944H214ZM308.026 675.864C300.442 675.864 293.626 674.184 287.578 670.824C281.53 667.464 276.778 662.856 273.322 657C269.962 651.048 268.282 644.328 268.282 636.84C268.282 629.352 269.962 622.68 273.322 616.824C276.778 610.872 281.53 606.264 287.578 603C293.626 599.64 300.442 597.96 308.026 597.96C315.61 597.96 322.378 599.64 328.33 603C334.378 606.264 339.082 610.872 342.442 616.824C345.898 622.68 347.626 629.352 347.626 636.84C347.626 644.328 345.898 651.048 342.442 657C339.082 662.856 334.378 667.464 328.33 670.824C322.378 674.184 315.61 675.864 308.026 675.864ZM308.026 663.768C312.922 663.768 317.29 662.664 321.13 660.456C325.066 658.152 328.138 654.984 330.346 650.952C332.554 646.824 333.658 642.12 333.658 636.84C333.658 631.56 332.554 626.904 330.346 622.872C328.138 618.744 325.066 615.576 321.13 613.368C317.29 611.16 312.922 610.056 308.026 610.056C303.13 610.056 298.714 611.16 294.778 613.368C290.938 615.576 287.866 618.744 285.562 622.872C283.354 626.904 282.25 631.56 282.25 636.84C282.25 642.12 283.354 646.824 285.562 650.952C287.866 654.984 290.938 658.152 294.778 660.456C298.714 662.664 303.13 663.768 308.026 663.768ZM379.993 611.496C382.393 607.08 385.945 603.72 390.649 601.416C395.353 599.112 401.065 597.96 407.785 597.96V611.352C407.017 611.256 405.961 611.208 404.617 611.208C397.129 611.208 391.225 613.464 386.905 617.976C382.681 622.392 380.569 628.728 380.569 636.984V675H366.745V598.68H379.993V611.496ZM464.999 670.536C462.983 672.264 460.487 673.608 457.511 674.568C454.535 675.432 451.463 675.864 448.295 675.864C440.615 675.864 434.663 673.8 430.439 669.672C426.215 665.544 424.103 659.64 424.103 651.96V581.976H437.927V598.68H459.815V610.056H437.927V651.384C437.927 655.512 438.935 658.68 440.951 660.888C443.063 663.096 446.039 664.2 449.879 664.2C454.103 664.2 457.703 663 460.679 660.6L464.999 670.536ZM504.963 573.768C495.555 573.768 490.851 578.808 490.851 588.888V599.832H514.899V606.024H490.995V675H483.795V588.312C483.795 581.976 485.571 576.936 489.123 573.192C492.771 569.448 497.907 567.576 504.531 567.576C507.411 567.576 510.195 568.008 512.883 568.872C515.571 569.64 517.779 570.84 519.507 572.472L516.627 577.944C513.555 575.16 509.667 573.768 504.963 573.768ZM557.609 675.576C550.505 675.576 544.073 673.944 538.313 670.68C532.649 667.416 528.185 662.904 524.921 657.144C521.657 651.288 520.025 644.712 520.025 637.416C520.025 630.12 521.657 623.592 524.921 617.832C528.185 611.976 532.649 607.416 538.313 604.152C544.073 600.888 550.505 599.256 557.609 599.256C564.713 599.256 571.097 600.888 576.761 604.152C582.521 607.416 587.033 611.976 590.297 617.832C593.561 623.592 595.193 630.12 595.193 637.416C595.193 644.712 593.561 651.288 590.297 657.144C587.033 662.904 582.521 667.416 576.761 670.68C571.097 673.944 564.713 675.576 557.609 675.576ZM557.609 669.096C563.369 669.096 568.505 667.752 573.017 665.064C577.625 662.376 581.225 658.632 583.817 653.832C586.505 649.032 587.849 643.56 587.849 637.416C587.849 631.272 586.505 625.8 583.817 621C581.225 616.2 577.625 612.456 573.017 609.768C568.505 607.08 563.369 605.736 557.609 605.736C551.849 605.736 546.665 607.08 542.057 609.768C537.545 612.456 533.945 616.2 531.257 621C528.665 625.8 527.369 631.272 527.369 637.416C527.369 643.56 528.665 649.032 531.257 653.832C533.945 658.632 537.545 662.376 542.057 665.064C546.665 667.752 551.849 669.096 557.609 669.096ZM637.114 675.576C630.778 675.576 625.93 673.8 622.57 670.248C619.21 666.6 617.53 661.608 617.53 655.272V568.152H624.73V654.408C624.73 659.304 625.834 663.048 628.042 665.64C630.25 668.136 633.562 669.384 637.978 669.384C640.474 669.384 642.874 668.904 645.178 667.944L645.754 673.992C643.066 675.048 640.186 675.576 637.114 675.576ZM660.42 599.832H667.62V675H660.42V599.832ZM664.02 581.544C662.388 581.544 660.996 581.016 659.844 579.96C658.692 578.808 658.116 577.416 658.116 575.784C658.116 574.152 658.692 572.76 659.844 571.608C660.996 570.456 662.388 569.88 664.02 569.88C665.652 569.88 667.044 570.456 668.196 571.608C669.348 572.664 669.924 574.008 669.924 575.64C669.924 577.272 669.348 578.664 668.196 579.816C667.044 580.968 665.652 581.544 664.02 581.544ZM727.343 675.576C720.239 675.576 713.807 673.944 708.047 670.68C702.383 667.416 697.919 662.904 694.655 657.144C691.391 651.288 689.759 644.712 689.759 637.416C689.759 630.12 691.391 623.592 694.655 617.832C697.919 611.976 702.383 607.416 708.047 604.152C713.807 600.888 720.239 599.256 727.343 599.256C734.447 599.256 740.831 600.888 746.495 604.152C752.255 607.416 756.767 611.976 760.031 617.832C763.295 623.592 764.927 630.12 764.927 637.416C764.927 644.712 763.295 651.288 760.031 657.144C756.767 662.904 752.255 667.416 746.495 670.68C740.831 673.944 734.447 675.576 727.343 675.576ZM727.343 669.096C733.103 669.096 738.239 667.752 742.751 665.064C747.359 662.376 750.959 658.632 753.551 653.832C756.239 649.032 757.583 643.56 757.583 637.416C757.583 631.272 756.239 625.8 753.551 621C750.959 616.2 747.359 612.456 742.751 609.768C738.239 607.08 733.103 605.736 727.343 605.736C721.583 605.736 716.399 607.08 711.791 609.768C707.279 612.456 703.679 616.2 700.991 621C698.399 625.8 697.103 631.272 697.103 637.416C697.103 643.56 698.399 649.032 700.991 653.832C703.679 658.632 707.279 662.376 711.791 665.064C716.399 667.752 721.583 669.096 727.343 669.096ZM787.264 675.72C785.152 675.72 783.328 674.952 781.792 673.416C780.352 671.88 779.632 670.008 779.632 667.8C779.632 665.592 780.352 663.768 781.792 662.328C783.328 660.792 785.152 660.024 787.264 660.024C789.376 660.024 791.2 660.792 792.736 662.328C794.272 663.768 795.04 665.592 795.04 667.8C795.04 670.008 794.272 671.88 792.736 673.416C791.2 674.952 789.376 675.72 787.264 675.72Z" fill="black"/>
<line x1="185" y1="721.5" x2="773" y2="721.5" stroke="#B0B0B0"/>
<path d="M190.5 750V738.552H186.072V737.4H196.26V738.552H191.832V750H190.5ZM198.118 750V740.55H199.396V750H198.118ZM198.766 738.462C198.502 738.462 198.28 738.372 198.1 738.192C197.92 738.012 197.83 737.796 197.83 737.544C197.83 737.292 197.92 737.082 198.1 736.914C198.28 736.734 198.502 736.644 198.766 736.644C199.03 736.644 199.252 736.728 199.432 736.896C199.612 737.064 199.702 737.274 199.702 737.526C199.702 737.79 199.612 738.012 199.432 738.192C199.264 738.372 199.042 738.462 198.766 738.462ZM214.76 740.46C215.528 740.46 216.194 740.61 216.758 740.91C217.334 741.198 217.778 741.642 218.09 742.242C218.414 742.842 218.576 743.598 218.576 744.51V750H217.298V744.636C217.298 743.64 217.058 742.89 216.578 742.386C216.11 741.87 215.444 741.612 214.58 741.612C213.932 741.612 213.368 741.75 212.888 742.026C212.42 742.29 212.054 742.68 211.79 743.196C211.538 743.7 211.412 744.312 211.412 745.032V750H210.134V744.636C210.134 743.64 209.894 742.89 209.414 742.386C208.934 741.87 208.262 741.612 207.398 741.612C206.762 741.612 206.204 741.75 205.724 742.026C205.244 742.29 204.872 742.68 204.608 743.196C204.356 743.7 204.23 744.312 204.23 745.032V750H202.952V740.55H204.176V743.106L203.978 742.656C204.266 741.972 204.728 741.438 205.364 741.054C206.012 740.658 206.774 740.46 207.65 740.46C208.574 740.46 209.36 740.694 210.008 741.162C210.656 741.618 211.076 742.308 211.268 743.232L210.764 743.034C211.04 742.266 211.526 741.648 212.222 741.18C212.93 740.7 213.776 740.46 214.76 740.46ZM225.948 750.09C225.144 750.09 224.442 749.94 223.842 749.64C223.242 749.34 222.774 748.89 222.438 748.29C222.114 747.69 221.952 746.94 221.952 746.04V740.55H223.23V745.896C223.23 746.904 223.476 747.666 223.968 748.182C224.472 748.686 225.174 748.938 226.074 748.938C226.734 748.938 227.304 748.806 227.784 748.542C228.276 748.266 228.648 747.87 228.9 747.354C229.164 746.838 229.296 746.22 229.296 745.5V740.55H230.574V750H229.35V747.408L229.548 747.876C229.248 748.572 228.78 749.118 228.144 749.514C227.52 749.898 226.788 750.09 225.948 750.09ZM234.136 750V740.55H235.36V743.124L235.234 742.674C235.498 741.954 235.942 741.408 236.566 741.036C237.19 740.652 237.964 740.46 238.888 740.46V741.702C238.84 741.702 238.792 741.702 238.744 741.702C238.696 741.69 238.648 741.684 238.6 741.684C237.604 741.684 236.824 741.99 236.26 742.602C235.696 743.202 235.414 744.06 235.414 745.176V750H234.136ZM246.341 750V737.4H247.439L256.133 748.344H255.557V737.4H256.871V750H255.773L247.097 739.056H247.673V750H246.341ZM264.62 750.09C263.816 750.09 263.114 749.94 262.514 749.64C261.914 749.34 261.446 748.89 261.11 748.29C260.786 747.69 260.624 746.94 260.624 746.04V740.55H261.902V745.896C261.902 746.904 262.148 747.666 262.64 748.182C263.144 748.686 263.846 748.938 264.746 748.938C265.406 748.938 265.976 748.806 266.456 748.542C266.948 748.266 267.32 747.87 267.572 747.354C267.836 746.838 267.968 746.22 267.968 745.5V740.55H269.246V750H268.022V747.408L268.22 747.876C267.92 748.572 267.452 749.118 266.816 749.514C266.192 749.898 265.46 750.09 264.62 750.09ZM276.839 753.582C275.975 753.582 275.147 753.456 274.355 753.204C273.563 752.952 272.921 752.592 272.429 752.124L273.077 751.152C273.521 751.548 274.067 751.86 274.715 752.088C275.375 752.328 276.071 752.448 276.803 752.448C278.003 752.448 278.885 752.166 279.449 751.602C280.013 751.05 280.295 750.186 280.295 749.01V746.652L280.475 745.032L280.349 743.412V740.55H281.573V748.848C281.573 750.48 281.171 751.674 280.367 752.43C279.575 753.198 278.399 753.582 276.839 753.582ZM276.605 749.64C275.705 749.64 274.895 749.448 274.175 749.064C273.455 748.668 272.885 748.122 272.465 747.426C272.057 746.73 271.853 745.932 271.853 745.032C271.853 744.132 272.057 743.34 272.465 742.656C272.885 741.96 273.455 741.42 274.175 741.036C274.895 740.652 275.705 740.46 276.605 740.46C277.445 740.46 278.201 740.634 278.873 740.982C279.545 741.33 280.079 741.846 280.475 742.53C280.871 743.214 281.069 744.048 281.069 745.032C281.069 746.016 280.871 746.85 280.475 747.534C280.079 748.218 279.545 748.74 278.873 749.1C278.201 749.46 277.445 749.64 276.605 749.64ZM276.731 748.506C277.427 748.506 278.045 748.362 278.585 748.074C279.125 747.774 279.551 747.366 279.863 746.85C280.175 746.322 280.331 745.716 280.331 745.032C280.331 744.348 280.175 743.748 279.863 743.232C279.551 742.716 279.125 742.314 278.585 742.026C278.045 741.726 277.427 741.576 276.731 741.576C276.047 741.576 275.429 741.726 274.877 742.026C274.337 742.314 273.911 742.716 273.599 743.232C273.299 743.748 273.149 744.348 273.149 745.032C273.149 745.716 273.299 746.322 273.599 746.85C273.911 747.366 274.337 747.774 274.877 748.074C275.429 748.362 276.047 748.506 276.731 748.506ZM291.052 750V747.912L290.998 747.57V744.078C290.998 743.274 290.77 742.656 290.314 742.224C289.87 741.792 289.204 741.576 288.316 741.576C287.704 741.576 287.122 741.678 286.57 741.882C286.018 742.086 285.55 742.356 285.166 742.692L284.59 741.738C285.07 741.33 285.646 741.018 286.318 740.802C286.99 740.574 287.698 740.46 288.442 740.46C289.666 740.46 290.608 740.766 291.268 741.378C291.94 741.978 292.276 742.896 292.276 744.132V750H291.052ZM287.794 750.09C287.086 750.09 286.468 749.976 285.94 749.748C285.424 749.508 285.028 749.184 284.752 748.776C284.476 748.356 284.338 747.876 284.338 747.336C284.338 746.844 284.452 746.4 284.68 746.004C284.92 745.596 285.304 745.272 285.832 745.032C286.372 744.78 287.092 744.654 287.992 744.654H291.25V745.608H288.028C287.116 745.608 286.48 745.77 286.12 746.094C285.772 746.418 285.598 746.82 285.598 747.3C285.598 747.84 285.808 748.272 286.228 748.596C286.648 748.92 287.236 749.082 287.992 749.082C288.712 749.082 289.33 748.92 289.846 748.596C290.374 748.26 290.758 747.78 290.998 747.156L291.286 748.038C291.046 748.662 290.626 749.16 290.026 749.532C289.438 749.904 288.694 750.09 287.794 750.09ZM299.761 750.09C298.777 750.09 297.913 749.886 297.169 749.478C296.425 749.058 295.843 748.488 295.423 747.768C295.003 747.036 294.793 746.202 294.793 745.266C294.793 744.33 294.991 743.502 295.387 742.782C295.795 742.062 296.347 741.498 297.043 741.09C297.751 740.67 298.543 740.46 299.419 740.46C300.307 740.46 301.093 740.664 301.777 741.072C302.473 741.468 303.019 742.032 303.415 742.764C303.811 743.484 304.009 744.318 304.009 745.266C304.009 745.326 304.003 745.392 303.991 745.464C303.991 745.524 303.991 745.59 303.991 745.662H295.765V744.708H303.307L302.803 745.086C302.803 744.402 302.653 743.796 302.353 743.268C302.065 742.728 301.669 742.308 301.165 742.008C300.661 741.708 300.079 741.558 299.419 741.558C298.771 741.558 298.189 741.708 297.673 742.008C297.157 742.308 296.755 742.728 296.467 743.268C296.179 743.808 296.035 744.426 296.035 745.122V745.32C296.035 746.04 296.191 746.676 296.503 747.228C296.827 747.768 297.271 748.194 297.835 748.506C298.411 748.806 299.065 748.956 299.797 748.956C300.373 748.956 300.907 748.854 301.399 748.65C301.903 748.446 302.335 748.134 302.695 747.714L303.415 748.542C302.995 749.046 302.467 749.43 301.831 749.694C301.207 749.958 300.517 750.09 299.761 750.09ZM308.864 750L304.67 740.55H306.002L309.854 749.316H309.224L313.13 740.55H314.39L310.178 750H308.864Z" fill="#1E1E1E"/>
</svg>
